<svg viewBox="0 0 330 200" xmlns="http://www.w3.org/2000/svg"><g><g><g><g><g><line x1="53.1875" y1="176" x2="48.1875" y2="176" style="visibility: inherit;" fill="rgb(0, 0, 0)" stroke="rgb(204, 204, 204)" stroke-width="1px"></line><line x1="53.1875" y1="158.39999999999998" x2="48.1875" y2="158.39999999999998" style="visibility: inherit;" fill="rgb(0, 0, 0)" stroke="rgb(204, 204, 204)" stroke-width="1px"></line><line x1="53.1875" y1="140.80000000000004" x2="48.1875" y2="140.80000000000004" style="visibility: inherit;" fill="rgb(0, 0, 0)" stroke="rgb(204, 204, 204)" stroke-width="1px"></line><line x1="53.1875" y1="123.20000000000003" x2="48.1875" y2="123.20000000000003" style="visibility: inherit;" fill="rgb(0, 0, 0)" stroke="rgb(204, 204, 204)" stroke-width="1px"></line><line x1="53.1875" y1="105.60000000000002" x2="48.1875" y2="105.60000000000002" style="visibility: inherit;" fill="rgb(0, 0, 0)" stroke="rgb(204, 204, 204)" stroke-width="1px"></line><line x1="53.1875" y1="88" x2="48.1875" y2="88" style="visibility: inherit;" fill="rgb(0, 0, 0)" stroke="rgb(204, 204, 204)" stroke-width="1px"></line><line x1="53.1875" y1="70.39999999999998" x2="48.1875" y2="70.39999999999998" style="visibility: inherit;" fill="rgb(0, 0, 0)" stroke="rgb(204, 204, 204)" stroke-width="1px"></line><line x1="53.1875" y1="52.79999999999997" x2="48.1875" y2="52.79999999999997" style="visibility: inherit;" fill="rgb(0, 0, 0)" stroke="rgb(204, 204, 204)" stroke-width="1px"></line><line x1="53.1875" y1="35.20000000000003" x2="48.1875" y2="35.20000000000003" style="visibility: inherit;" fill="rgb(0, 0, 0)" stroke="rgb(204, 204, 204)" stroke-width="1px"></line><line x1="53.1875" y1="17.600000000000016" x2="48.1875" y2="17.600000000000016" style="visibility: inherit;" fill="rgb(0, 0, 0)" stroke="rgb(204, 204, 204)" stroke-width="1px"></line><line x1="53.1875" y1="0" x2="48.1875" y2="0" style="visibility: inherit;" fill="rgb(0, 0, 0)" stroke="rgb(204, 204, 204)" stroke-width="1px"></line></g><g transform="translate(43.1875, 0)"><text x="0" y="176" dx="0em" dy="0.3em" style="text-anchor: end; visibility: hidden; font-family: Roboto, sans-serif; font-size: 12px; font-weight: 200;" fill="rgb(33, 33, 33)" stroke="none" stroke-width="1px">0.78</text><text x="0" y="158.39999999999998" dx="0em" dy="0.3em" style="text-anchor: end; visibility: inherit; font-family: Roboto, sans-serif; font-size: 12px; font-weight: 200;" fill="rgb(33, 33, 33)" stroke="none" stroke-width="1px">0.8</text><text x="0" y="140.80000000000004" dx="0em" dy="0.3em" style="text-anchor: end; visibility: hidden; font-family: Roboto, sans-serif; font-size: 12px; font-weight: 200;" fill="rgb(33, 33, 33)" stroke="none" stroke-width="1px">0.82</text><text x="0" y="123.20000000000003" dx="0em" dy="0.3em" style="text-anchor: end; visibility: inherit; font-family: Roboto, sans-serif; font-size: 12px; font-weight: 200;" fill="rgb(33, 33, 33)" stroke="none" stroke-width="1px">0.84</text><text x="0" y="105.60000000000002" dx="0em" dy="0.3em" style="text-anchor: end; visibility: hidden; font-family: Roboto, sans-serif; font-size: 12px; font-weight: 200;" fill="rgb(33, 33, 33)" stroke="none" stroke-width="1px">0.86</text><text x="0" y="88" dx="0em" dy="0.3em" style="text-anchor: end; visibility: inherit; font-family: Roboto, sans-serif; font-size: 12px; font-weight: 200;" fill="rgb(33, 33, 33)" stroke="none" stroke-width="1px">0.88</text><text x="0" y="70.39999999999998" dx="0em" dy="0.3em" style="text-anchor: end; visibility: hidden; font-family: Roboto, sans-serif; font-size: 12px; font-weight: 200;" fill="rgb(33, 33, 33)" stroke="none" stroke-width="1px">0.9</text><text x="0" y="52.79999999999997" dx="0em" dy="0.3em" style="text-anchor: end; visibility: inherit; font-family: Roboto, sans-serif; font-size: 12px; font-weight: 200;" fill="rgb(33, 33, 33)" stroke="none" stroke-width="1px">0.92</text><text x="0" y="35.20000000000003" dx="0em" dy="0.3em" style="text-anchor: end; visibility: hidden; font-family: Roboto, sans-serif; font-size: 12px; font-weight: 200;" fill="rgb(33, 33, 33)" stroke="none" stroke-width="1px">0.94</text><text x="0" y="17.600000000000016" dx="0em" dy="0.3em" style="text-anchor: end; visibility: inherit; font-family: Roboto, sans-serif; font-size: 12px; font-weight: 200;" fill="rgb(33, 33, 33)" stroke="none" stroke-width="1px">0.96</text><text x="0" y="0" dx="0em" dy="0.3em" style="text-anchor: end; visibility: hidden; font-family: Roboto, sans-serif; font-size: 12px; font-weight: 200;" fill="rgb(33, 33, 33)" stroke="none" stroke-width="1px">0.98</text></g><line x1="53.1875" y1="0" x2="53.1875" y2="176" fill="rgb(0, 0, 0)" stroke="rgb(204, 204, 204)" stroke-width="1px"></line></g></g><g transform="translate(53, 0)" clip-path="url(#clip_0)"><clipPath id="clip_0"><rect width="276" height="175"></rect></clipPath><g><g><g><line x1="0" y1="0" x2="0" y2="176" fill="rgb(0, 0, 0)" stroke="rgb(66, 66, 66)" stroke-width="1px" opacity="0.25"></line><line x1="18.454166666666666" y1="0" x2="18.454166666666666" y2="176" fill="rgb(0, 0, 0)" stroke="rgb(66, 66, 66)" stroke-width="1px" opacity="0.25"></line><line x1="36.90833333333333" y1="0" x2="36.90833333333333" y2="176" fill="rgb(0, 0, 0)" stroke="rgb(66, 66, 66)" stroke-width="1px" opacity="0.25"></line><line x1="55.362500000000004" y1="0" x2="55.362500000000004" y2="176" fill="rgb(0, 0, 0)" stroke="rgb(66, 66, 66)" stroke-width="1px" opacity="0.25"></line><line x1="73.81666666666666" y1="0" x2="73.81666666666666" y2="176" fill="rgb(0, 0, 0)" stroke="rgb(66, 66, 66)" stroke-width="1px" opacity="0.25"></line><line x1="92.27083333333333" y1="0" x2="92.27083333333333" y2="176" fill="rgb(0, 0, 0)" stroke="rgb(66, 66, 66)" stroke-width="1px" opacity="0.25"></line><line x1="110.72500000000001" y1="0" x2="110.72500000000001" y2="176" fill="rgb(0, 0, 0)" stroke="rgb(66, 66, 66)" stroke-width="1px" opacity="0.25"></line><line x1="129.17916666666667" y1="0" x2="129.17916666666667" y2="176" fill="rgb(0, 0, 0)" stroke="rgb(66, 66, 66)" stroke-width="1px" opacity="0.25"></line><line x1="147.63333333333333" y1="0" x2="147.63333333333333" y2="176" fill="rgb(0, 0, 0)" stroke="rgb(66, 66, 66)" stroke-width="1px" opacity="0.25"></line><line x1="166.0875" y1="0" x2="166.0875" y2="176" fill="rgb(0, 0, 0)" stroke="rgb(66, 66, 66)" stroke-width="1px" opacity="0.25"></line><line x1="184.54166666666666" y1="0" x2="184.54166666666666" y2="176" fill="rgb(0, 0, 0)" stroke="rgb(66, 66, 66)" stroke-width="1px" opacity="0.25"></line><line x1="202.9958333333333" y1="0" x2="202.9958333333333" y2="176" fill="rgb(0, 0, 0)" stroke="rgb(66, 66, 66)" stroke-width="1px" opacity="0.25"></line><line x1="221.45000000000002" y1="0" x2="221.45000000000002" y2="176" fill="rgb(0, 0, 0)" stroke="rgb(66, 66, 66)" stroke-width="1px" opacity="0.25"></line><line x1="239.90416666666667" y1="0" x2="239.90416666666667" y2="176" fill="rgb(0, 0, 0)" stroke="rgb(66, 66, 66)" stroke-width="1px" opacity="0.25"></line><line x1="258.35833333333335" y1="0" x2="258.35833333333335" y2="176" fill="rgb(0, 0, 0)" stroke="rgb(66, 66, 66)" stroke-width="1px" opacity="0.25"></line><line x1="276.8125" y1="0" x2="276.8125" y2="176" fill="rgb(0, 0, 0)" stroke="rgb(66, 66, 66)" stroke-width="1px" opacity="0.25"></line></g><g><line x1="0" y1="176" x2="276.8125" y2="176" fill="rgb(0, 0, 0)" stroke="rgb(66, 66, 66)" stroke-width="1px" opacity="0.25"></line><line x1="0" y1="158.39999999999998" x2="276.8125" y2="158.39999999999998" fill="rgb(0, 0, 0)" stroke="rgb(66, 66, 66)" stroke-width="1px" opacity="0.25"></line><line x1="0" y1="140.80000000000004" x2="276.8125" y2="140.80000000000004" fill="rgb(0, 0, 0)" stroke="rgb(66, 66, 66)" stroke-width="1px" opacity="0.25"></line><line x1="0" y1="123.20000000000003" x2="276.8125" y2="123.20000000000003" fill="rgb(0, 0, 0)" stroke="rgb(66, 66, 66)" stroke-width="1px" opacity="0.25"></line><line x1="0" y1="105.60000000000002" x2="276.8125" y2="105.60000000000002" fill="rgb(0, 0, 0)" stroke="rgb(66, 66, 66)" stroke-width="1px" opacity="0.25"></line><line x1="0" y1="88" x2="276.8125" y2="88" fill="rgb(0, 0, 0)" stroke="rgb(66, 66, 66)" stroke-width="1px" opacity="0.25"></line><line x1="0" y1="70.39999999999998" x2="276.8125" y2="70.39999999999998" fill="rgb(0, 0, 0)" stroke="rgb(66, 66, 66)" stroke-width="1px" opacity="0.25"></line><line x1="0" y1="52.79999999999997" x2="276.8125" y2="52.79999999999997" fill="rgb(0, 0, 0)" stroke="rgb(66, 66, 66)" stroke-width="1px" opacity="0.25"></line><line x1="0" y1="35.20000000000003" x2="276.8125" y2="35.20000000000003" fill="rgb(0, 0, 0)" stroke="rgb(66, 66, 66)" stroke-width="1px" opacity="0.25"></line><line x1="0" y1="17.600000000000016" x2="276.8125" y2="17.600000000000016" fill="rgb(0, 0, 0)" stroke="rgb(66, 66, 66)" stroke-width="1px" opacity="0.25"></line><line x1="0" y1="0" x2="276.8125" y2="0" fill="rgb(0, 0, 0)" stroke="rgb(66, 66, 66)" stroke-width="1px" opacity="0.25"></line></g></g></g><g><g><line x1="0" y1="862.4000000000001" x2="276.8125" y2="862.4000000000001" fill="rgb(0, 0, 0)" stroke="rgb(153, 153, 153)" stroke-width="1.5px"></line></g></g><g><g><line x1="18.454166666666666" y1="0" x2="18.454166666666666" y2="176" fill="rgb(0, 0, 0)" stroke="rgb(153, 153, 153)" stroke-width="1.5px"></line></g></g><g><g><g><g><g><path stroke="rgb(0, 153, 136)" stroke-width="2px" d="M226.98624999999998,106.26922359466543L227.90895833333335,107.88153519630423L228.83166666666668,106.47082158692028L229.75437499999998,105.65869479600119L230.67708333333334,106.36489023252301L231.59979166666668,105.57688780235546L232.52249999999998,105.80440304995358L233.44520833333334,105.98900491410828L234.36791666666667,105.72503627079053L235.290625,105.34974754543848L236.21333333333334,105.13974016058914L237.13604166666667,105.30027034837472L238.05875,105.13964342864142L238.9814583333333,105.48104814875231L239.90416666666667,109.78373490999591L240.826875,109.89844385413672L241.74958333333333,109.17399671207339L242.67229166666667,108.30860563987333L243.595,107.7079327200552L244.51770833333333,106.78595883336328L245.4404166666667,105.96897726929116L246.363125,105.82184096791025L247.28583333333333,105.58793130099576L248.20854166666666,105.45921012074069L249.13125,105.24721751686234L250.05395833333333,105.18592325529212L250.97666666666666,105.52361309091182L251.89937500000002,105.24039425838276L252.82208333333332,105.31201551208318L253.74479166666666,105.86734035042791L254.66750000000002,106.77215809919653L255.59020833333332,106.91160816407334L256.5129166666667,107.06606753643491L257.435625,106.3194677709779L258.35833333333335,109.49754177068675L259.2810416666667,107.90440517293298L260.20375,106.43346470415362" style="fill: none;" fill="none"></path></g><g><path stroke="rgb(238, 51, 119)" stroke-width="2px" d="M226.98624999999998,24.16843643188475L227.90895833333335,27.548252248764022L228.83166666666668,28.175904363515414L229.75437499999998,26.748526649615336L230.67708333333334,25.948335046258578L231.59979166666668,25.097326701642597L232.52249999999998,24.571442732428768L233.44520833333334,23.49839154171797L234.36791666666667,22.600752879335644L235.290625,22.052564133387893L236.21333333333334,21.24285349819793L237.13604166666667,20.670914943375465L238.05875,20.227983039460675L238.9814583333333,20.54178365571093L239.90416666666667,49.869433420741665L240.826875,49.775161441902675L241.74958333333333,44.71904312671907L242.67229166666667,39.415059414368876L243.595,34.684240230433204L244.51770833333333,30.768234214828585L245.4404166666667,27.696252319890206L246.363125,25.512645822930324L247.28583333333333,23.90603877989582L248.20854166666666,22.544200234826988L249.13125,21.520921986325217L250.05395833333333,20.630890601786945L250.97666666666666,20.13056799816667L251.89937500000002,20.7644211289415L252.82208333333332,20.68422424205414L253.74479166666666,21.490320032277126L254.66750000000002,23.305715087316674L255.59020833333332,23.870913609701432L256.5129166666667,25.039929660852593L257.435625,25.360746898721L258.35833333333335,25.559153831119986L259.2810416666667,25.034086348432023L260.20375,23.55729506163857" style="fill: none;" fill="none"></path></g><g><path stroke="rgb(51, 187, 238)" stroke-width="2px" d="M171.62375,104.05606021881104L172.54645833333333,103.73751213550558L173.46916666666667,104.78404166941743L174.391875,105.36612534452894L175.31458333333333,105.3761940832356L176.2372916666667,105.34068751030394L177.16,106.11573338795817L178.08270833333333,108.38194692471954L179.00541666666666,107.64217437777575L179.928125,106.72426556779214L180.85083333333333,106.91311978814392L181.77354166666666,106.83566003170733L182.69625000000002,106.5675078908862L183.61895833333332,106.2513559990266L184.54166666666666,106.43533209379045L185.46437500000002,105.97887306595283L186.38708333333332,105.42525327781857L187.30979166666665,114.92773164674716L188.23250000000002,112.46838426692182L189.15520833333335,109.94754735737432L190.07791666666665,108.56445388411834L191.00062499999999,107.57891639296032L191.92333333333335,106.44129890525603L192.84604166666665,106.20497765574649L193.76874999999998,105.76603321233739L194.69145833333334,105.3864333210121L195.61416666666668,105.10641048725657L196.53687499999998,104.79711194103858L197.45958333333334,104.63238789250376L198.38229166666667,104.84442660256889L199.305,104.82291663984044L200.22770833333334,105.24916055554735L201.15041666666667,105.01238175903345L202.073125,104.86341179346142L202.9958333333333,105.57835111973915L203.91854166666667,105.71855547309434L204.84125,105.98508546446105L205.76395833333333,106.24084391268293L206.68666666666667,106.01337094060887L207.609375,105.973378017803L208.53208333333333,106.16563173026961L209.45479166666667,105.86927703301421L210.3775,105.75012662932001L211.30020833333333,105.49406798194228L212.2229166666667,105.16008153620086L213.145625,104.5832725087208L214.06833333333333,104.97890156982251L214.99104166666666,105.12553689526585L215.91375,105.4231166317925L216.83645833333333,105.25352947919616L217.75916666666666,105.24600211744934L218.68187500000002,105.62405024508006L219.60458333333332,105.49596731745788L220.52729166666666,105.94579946090987L221.45000000000002,105.6480202954422L222.37270833333335,105.19647605665959L223.29541666666665,105.55268765120773L224.21812500000001,105.18740650551962L225.14083333333335,105.39536565624154L226.06354166666665,105.37650635053201" style="fill: none;" fill="none"></path></g><g><path stroke="rgb(204, 51, 17)" stroke-width="2px" d="M171.62375,24.979870223999008L172.54645833333333,25.029699707031334L173.46916666666667,25.233754383787765L174.391875,26.040728154603077L175.31458333333333,26.75766110893423L176.2372916666667,27.358345621151933L177.16,27.770757119719505L178.08270833333333,27.891061222501598L179.00541666666666,30.314624556568297L179.928125,30.301849956640574L180.85083333333333,29.376750245203496L181.77354166666666,29.072903234165217L182.69625000000002,28.168061176312857L183.61895833333332,27.610584856947398L184.54166666666666,27.13655970580269L185.46437500000002,26.57433870767865L186.38708333333332,26.138019360551496L187.30979166666665,36.69437886745004L188.23250000000002,43.98360035065089L189.15520833333335,40.582955570422506L190.07791666666665,36.328072565961314L191.00062499999999,33.08234326868585L191.92333333333335,30.28658725142206L192.84604166666665,28.184976221354017L193.76874999999998,26.92844294536414L194.69145833333334,25.724317741521176L195.61416666666668,24.688683670644505L196.53687499999998,23.875769746515864L197.45958333333334,23.256723597967444L198.38229166666667,22.760040442409366L199.305,22.34023685624546L200.22770833333334,22.204525632609506L201.15041666666667,22.469996047149685L202.073125,22.613899335293706L202.9958333333333,22.915336829258557L203.91854166666667,23.455139450534965L204.84125,25.183205369858044L205.76395833333333,25.817653479397702L206.68666666666667,26.370113420656622L207.609375,26.5859849838348L208.53208333333333,25.89576571814094L209.45479166666667,26.4457454876677L210.3775,25.71710335928472L211.30020833333333,24.623029120483828L212.2229166666667,23.78266657803783L213.145625,24.37264155757734L214.06833333333333,24.367602497412353L214.99104166666666,23.7853611505339L215.91375,23.16116740442326L216.83645833333333,22.71397354445692L217.75916666666666,22.173514818199944L218.68187500000002,22.10805916252621L219.60458333333332,22.023928743975407L220.52729166666666,21.946909736619613L221.45000000000002,22.084469465629066L222.37270833333335,22.08144545806394L223.29541666666665,22.52434083135703L224.21812500000001,24.10456932730556L225.14083333333335,25.003191654366805L226.06354166666665,24.83363244562293" style="fill: none;" fill="none"></path></g><g><path stroke="rgb(0, 119, 187)" stroke-width="2px" d="M153.16958333333335,106.1790584564209L154.09229166666665,105.57064702510834L155.01500000000001,105.49692976426113L155.93770833333335,106.46697509919893L156.86041666666665,106.26329246841321L157.78312499999998,105.8125120299203L158.70583333333335,106.24018182610088L159.62854166666668,105.5706346517562L160.55124999999998,106.14548281980451L161.47395833333334,112.38580339261813L162.39666666666668,111.18179930796728L163.31937499999998,109.57596917394581L164.24208333333334,108.38826298945374L165.16479166666667,106.83688825102573L166.0875,105.86414674305323L167.01020833333334,105.14343632157028L167.93291666666667,105.33261381864524L168.855625,105.07295973689209L169.7783333333333,104.90111186700003L170.70104166666667,104.88252374039322" style="fill: none;" fill="none"></path></g><g><path stroke="rgb(255, 112, 67)" stroke-width="2px" d="M153.16958333333335,28.984115028381332L154.09229166666665,28.887931013107284L155.01500000000001,29.03960719595153L155.93770833333335,29.240039754615125L156.86041666666665,29.676559385634658L157.78312499999998,29.822833835784166L158.70583333333335,29.613173876846346L159.62854166666668,29.36775074202086L160.55124999999998,29.49514997314134L161.47395833333334,33.364820294476715L162.39666666666668,41.86892526961452L163.31937499999998,40.376411796278184L164.24208333333334,37.20785274745593L165.16479166666667,33.99327884770109L166.0875,31.34442408161479L167.01020833333334,29.272856383388593L167.93291666666667,27.672128335570044L168.855625,26.51882164524629L169.7783333333333,25.75798635574334L170.70104166666667,25.395218689855803" style="fill: none;" fill="none"></path></g><g><path stroke="rgb(187, 187, 187)" stroke-width="2px" d="M134.71541666666667,105.69419136047364L135.638125,105.78899850845337L136.56083333333333,105.98998901989992L137.48354166666667,106.38896264679288L138.40625,106.11433021458052L139.32895833333333,106.04084775542592L140.25166666666667,106.13331800793512L141.174375,105.74716380196226L142.09708333333333,109.12112734585432L143.0197916666667,112.06971467711571L143.9425,110.06754128324111L144.86520833333333,108.30115933993075L145.78791666666666,107.12686216195239L146.710625,106.27735603826143L147.63333333333333,106.12105830427532L148.55604166666666,105.86172022193101L149.47875000000002,105.37987797204352L150.40145833333332,105.5487570754498L151.32416666666666,105.73700245629787L152.24687500000002,106.69195501628701" style="fill: none;" fill="none"></path></g><g><path stroke="rgb(0, 153, 136)" stroke-width="2px" d="M134.71541666666667,33.50076427459715L135.638125,33.41408720016478L136.56083333333333,33.02073668655093L137.48354166666667,32.685215307684544L138.40625,32.53503107405806L139.32895833333333,32.399722070775816L140.25166666666667,32.59360766091467L141.174375,32.55346761656955L142.09708333333333,34.03184724185251L143.0197916666667,42.37013384657219L143.9425,44.73431976682335L144.86520833333333,41.642842336582795L145.78791666666666,38.21551343533551L146.710625,35.311194026584715L147.63333333333333,33.0585581850852L148.55604166666666,31.439590902313526L149.47875000000002,30.24936293578305L150.40145833333332,29.82154178023358L151.32416666666666,29.5120858986446L152.24687500000002,29.29046197264178" style="fill: none;" fill="none"></path></g><g><path stroke="rgb(238, 51, 119)" stroke-width="2px" d="M116.26124999999999,111.00008716583254L117.18395833333334,109.92183616161347L118.10666666666667,114.4159330173415L119.029375,112.50246439891714L119.95208333333333,110.08129075756521L120.87479166666667,108.14981091165896L121.7975,107.75634877950552L122.72020833333335,108.52042058732906L123.64291666666666,107.3507402432027L124.565625,106.9205890049655L125.48833333333333,106.49933294140013L126.41104166666666,106.1606565922696L127.33375000000001,105.94515019351618L128.25645833333334,106.08970530286155L129.17916666666667,107.2656994349813L130.101875,107.48432203506924L131.02458333333334,107.30820272266955L131.94729166666667,107.45619230916962L132.87,107.07745298780463L133.79270833333334,107.5665150794515" style="fill: none;" fill="none"></path></g><g><path stroke="rgb(51, 187, 238)" stroke-width="2px" d="M116.26124999999999,40.53243865966795L117.18395833333334,43.242638015747055L118.10666666666667,48.49135248223128L119.029375,50.09401355701333L119.95208333333333,47.55386381222095L120.87479166666667,44.257460903685974L121.7975,41.34669968270154L122.72020833333335,39.28594884156118L123.64291666666666,38.06483943109625L124.565625,36.59815591181548L125.48833333333333,35.94146876230403L126.41104166666666,35.215628761078534L127.33375000000001,34.541832039716L128.25645833333334,34.57899774845104L129.17916666666667,34.73438058225764L130.101875,36.54654668582164L131.02458333333334,37.12603269091246L131.94729166666667,37.066570988339265L132.87,36.76163436905973L133.79270833333334,35.81589814648221" style="fill: none;" fill="none"></path></g><g><path stroke="rgb(187, 187, 187)" stroke-width="2px" d="M97.80708333333334,107.55807628631592L98.72979166666667,108.32423737049093L99.6525,108.16597457029367L100.57520833333334,108.1581262378131L101.49791666666665,108.29201002630559L102.420625,107.84856831287324L103.34333333333333,107.4610031298324L104.26604166666667,108.1384540077558L105.18875,107.71755577206721L106.11145833333335,107.59657301441504L107.03416666666666,114.37327518162698L107.956875,113.2146484445793L108.87958333333333,110.54851682898492L109.80229166666666,108.94743565422472L110.72500000000001,107.83874523295114L111.64770833333333,107.44707028348893L112.57041666666667,107.19843323844434L113.49312499999999,106.80256023504788L114.41583333333334,107.62407139958631L115.33854166666667,107.32950653288408" style="fill: none;" fill="none"></path></g><g><path stroke="rgb(0, 153, 136)" stroke-width="2px" d="M97.80708333333334,50.78446140289307L98.72979166666667,47.757353091239835L99.6525,46.627997429516824L100.57520833333334,45.25607309902419L101.49791666666665,44.288176102674754L102.420625,43.36578816466123L103.34333333333333,42.61473836545912L104.26604166666667,42.90595339927122L105.18875,42.04113388837555L106.11145833333335,41.032269308425725L107.03416666666666,43.74578228687163L107.956875,47.10037836335377L108.87958333333333,45.53757523192327L109.80229166666666,43.14484971100636L110.72500000000001,40.9646992209631L111.64770833333333,39.084011931449034L112.57041666666667,37.51092328192013L113.49312499999999,36.41962535744119L114.41583333333334,35.78959250517218L115.33854166666667,35.44359430854949" style="fill: none;" fill="none"></path></g><g><path stroke="rgb(238, 51, 119)" stroke-width="2px" d="M79.35291666666667,109.40334072113038L80.27562499999999,109.0531902551652L81.19833333333334,110.87554236042268L82.12104166666667,109.49613077780796L83.04375,110.19864558736802L83.96645833333334,109.44399316638692L84.88916666666665,109.20798105734033L85.811875,108.76213014452004L86.73458333333333,108.79605587776541L87.65729166666667,107.8461725534648L88.58,107.43952458140922L89.50270833333333,112.12251103855493L90.42541666666666,111.6737106350501L91.34812500000001,111.08138458516065L92.27083333333333,109.61044130545281L93.19354166666666,108.40382088202242L94.11625000000001,108.02238482518257L95.03895833333333,107.99155978356268L95.96166666666667,109.78877493841617L96.88437499999999,112.17009633640463" style="fill: none;" fill="none"></path></g><g><path stroke="rgb(51, 187, 238)" stroke-width="2px" d="M79.35291666666667,69.2861484527588L80.27562499999999,65.38866331577302L81.19833333333334,64.77793435855789L82.12104166666667,64.50531327654332L83.04375,63.65903446255749L83.96645833333334,61.24356650834949L84.88916666666665,59.063861431827235L85.811875,57.001723307163516L86.73458333333333,55.191079021658766L87.65729166666667,53.71981350414087L88.58,52.500567435811206L89.50270833333333,52.919194684533544L90.42541666666666,55.96416051072026L91.34812500000001,54.99066197553342L92.27083333333333,52.98665233303139L93.19354166666666,50.41483435840604L94.11625000000001,48.72256833353436L95.03895833333333,47.37330127696653L95.96166666666667,47.233808615545996L96.88437499999999,49.35169698378532" style="fill: none;" fill="none"></path></g><g><path stroke="rgb(204, 51, 17)" stroke-width="2px" d="M60.89875,156.45296802520755L61.82145833333333,156.28908803462974L62.744166666666665,158.57750771191655L63.666875000000005,155.83752762850597L64.58958333333334,153.30604516386077L65.51229166666667,151.42745560659887L66.435,153.97245483198515L67.35770833333333,157.2015111357525L68.28041666666667,156.37314844628665L69.203125,154.78120594927478L70.12583333333333,152.12111293050359L71.04854166666667,150.94732153222492L71.97125,150.27151165328044L72.89395833333333,150.05703648193852L73.81666666666666,155.00243703482397L74.73937500000001,152.61259962122529L75.66208333333333,150.74603197215853L76.58479166666667,148.61638345658693L77.50750000000001,146.1578384479837L78.43020833333333,147.18442276176305" style="fill: none;" fill="none"></path></g><g><path stroke="rgb(0, 119, 187)" stroke-width="2px" d="M60.89875,174.9442695617676L61.82145833333333,163.47191622257225L62.744166666666665,157.20942132521654L63.666875000000005,153.24869102520097L64.58958333333334,150.1143648380542L65.51229166666667,147.49505247839275L66.435,145.25238052683534L67.35770833333333,144.52779349785433L68.28041666666667,142.3240112713544L69.203125,140.9170645790194L70.12583333333333,140.08876331211005L71.04854166666667,139.0470813231429L71.97125,137.83548266138502L72.89395833333333,136.76675626702684L73.81666666666666,135.6424098597842L74.73937500000001,135.67782857328407L75.66208333333333,135.01777331539333L76.58479166666667,133.92572275836318L77.50750000000001,132.094830678524L78.43020833333333,130.78896369965796" style="fill: none;" fill="none"></path></g><g><path stroke="rgb(255, 112, 67)" stroke-width="2px" d="M49.82625,124.4001792907715L50.74895833333333,121.46033813953402L51.67166666666667,120.72130227770128L52.594375,120.58004459142687L53.51708333333333,120.36726368765801L54.439791666666665,118.34664722777073L55.362500000000004,117.62716687312049L56.28520833333334,117.95345695108855L57.20791666666667,119.78736566644281L58.130624999999995,119.30270201993142L59.053333333333335,118.71230986827882L59.97604166666667,118.48878304924571" style="fill: none;" fill="none"></path></g><g><path stroke="rgb(187, 187, 187)" stroke-width="2px" d="M49.82625,92.88581123352041L50.74895833333333,89.08493628501883L51.67166666666667,86.12831782516159L52.594375,83.57541819810878L53.51708333333333,81.2516745312524L54.439791666666665,80.23107164402903L55.362500000000004,77.64247759560054L56.28520833333334,75.20797687851282L57.20791666666667,74.44474935253712L58.130624999999995,74.41032523892648L59.053333333333335,73.02630671636639L59.97604166666667,71.48587268899418" style="fill: none;" fill="none"></path></g><g><path stroke="rgb(51, 187, 238)" stroke-width="2px" d="M36.90833333333333,140.31975498199466L37.831041666666664,137.00668444633493L38.753750000000004,133.8619877873635L39.676458333333336,131.2881582898253L40.59916666666667,130.9698775662721L41.521875,130.1944077975511L42.44458333333333,128.11675605018405L43.36729166666667,127.93252140562585L44.29,132.2484871893487L45.21270833333333,129.62341397296433L46.135416666666664,127.94260346788602L47.058125000000004,127.07941124857004L47.98083333333334,125.69615078391996L48.90354166666667,130.40983813895016" style="fill: none;" fill="none"></path></g><g><path stroke="rgb(204, 51, 17)" stroke-width="2px" d="M36.90833333333333,129.23788776397708L37.831041666666664,125.91154029369356L38.753750000000004,121.89301126051927L39.676458333333336,119.16169907345504L40.59916666666667,116.46465079038208L41.521875,114.51926487603575L42.44458333333333,112.51381273144823L43.36729166666667,110.18258037351606L44.29,108.42449811821983L45.21270833333333,106.44664826057867L46.135416666666664,105.18099072444406L47.058125000000004,102.90532705897598L47.98083333333334,100.67966329593115L48.90354166666667,99.62650369896215" style="fill: none;" fill="none"></path></g><g><path stroke="rgb(255, 112, 67)" stroke-width="2px" d="M26.758541666666666,180.40147468685012L27.681250000000002,171.90756266436796L28.603958333333335,162.88538006717573L29.526666666666667,157.56022287505715L30.449375,150.48491676571052L31.372083333333332,151.02286666116115L32.29479166666667,146.30590407547493L33.2175,141.5169093797315L34.140208333333334,139.48370675977023L35.062916666666666,136.59241924084927L35.985625,135.80715600359704" style="fill: none;" fill="none"></path></g><g><path stroke="rgb(187, 187, 187)" stroke-width="2px" d="M25.835833333333333,185.8831887568012L26.758541666666666,173.61617686988222L27.681250000000002,163.36412988669892L28.603958333333335,154.61244828486284L29.526666666666667,147.12361951358403L30.449375,140.52801816545283L31.372083333333332,135.5666858732199L32.29479166666667,130.94524172981042L33.2175,126.21121158361213L34.140208333333334,122.4593657035117L35.062916666666666,119.26911184949444L35.985625,115.72995396919093" style="fill: none;" fill="none"></path></g></g></g></g><g opacity="0.2"><g><g><g><path stroke="rgb(0, 153, 136)" stroke-width="2px" d="M226.98624999999998,106.26922359466553L227.90895833333335,108.8489221572876L228.83166666666668,105.11653652191163L229.75437499999998,104.70363368988038L230.67708333333334,107.2868989944458L231.59979166666668,104.48679676055909L232.52249999999998,106.1297534942627L233.44520833333334,106.25815620422364L234.36791666666667,105.33573379516602L235.290625,104.79248752593995L236.21333333333334,104.82663383483887L237.13604166666667,105.54019203186036L238.05875,104.89922752380372L238.9814583333333,105.99248638153077L239.90416666666667,116.23270740509035L240.826875,110.0704263687134L241.74958333333333,108.08763256072999L242.67229166666667,107.01073875427247L243.595,106.80701484680176L244.51770833333333,105.40308227539063L245.4404166666667,104.74354972839356L246.363125,105.60114135742188L247.28583333333333,105.23707141876221L248.20854166666666,105.26612987518311L249.13125,104.92923011779786L250.05395833333333,105.09398212432862L250.97666666666666,106.03014698028565L251.89937500000002,104.81556644439698L252.82208333333332,105.41944732666016L253.74479166666666,106.7003273010254L254.66750000000002,108.12938442230225L255.59020833333332,107.12078323364258L256.5129166666667,107.29775657653809L257.435625,105.19956817626954L258.35833333333335,114.26465263366701L259.2810416666667,105.51470031738282L260.20375,104.22705402374268" style="fill: none;" fill="none"></path></g><g><path stroke="rgb(238, 51, 119)" stroke-width="2px" d="M226.98624999999998,24.16843643188475L227.90895833333335,29.576141738891586L228.83166666666668,28.778450393676742L229.75437499999998,25.069930458068832L230.67708333333334,24.903604888916L231.59979166666668,23.920075798034652L232.52249999999998,23.819420242309555L233.44520833333334,21.9338726043701L234.36791666666667,21.276910209655746L235.290625,21.238567733764633L236.21333333333334,20.03563156127928L237.13604166666667,19.816119575500473L238.05875,19.565031433105453L238.9814583333333,21.011869812011703L239.90416666666667,93.82643451690674L240.826875,49.63381996154786L241.74958333333333,37.13700523376463L242.67229166666667,31.460430526733383L243.595,27.58873214721678L244.51770833333333,24.894583129882797L245.4404166666667,23.088447952270492L246.363125,22.23730792999266L247.28583333333333,21.496159934997543L248.20854166666666,20.501458549499496L249.13125,19.986011886596664L250.05395833333333,19.295847320556625L250.97666666666666,19.38008537292479L251.89937500000002,21.71519985198973L252.82208333333332,20.563928985595687L253.74479166666666,22.69946327209471L254.66750000000002,26.028807067871078L255.59020833333332,24.71871128082274L256.5129166666667,26.793453598022445L257.435625,25.84197273254393L258.35833333333335,25.85676422119139L259.2810416666667,24.246485137939437L260.20375,21.34210815429686" style="fill: none;" fill="none"></path></g><g><path stroke="rgb(51, 187, 238)" stroke-width="2px" d="M171.62375,104.05606021881104L172.54645833333333,103.54638328552247L173.46916666666667,105.78871002197266L174.391875,106.05065574645997L175.31458333333333,105.38933982849122L176.2372916666667,105.29156913757325L177.16,107.2240613937378L178.08270833333333,111.6861080169678L179.00541666666666,106.55115356445313L179.928125,105.36127796173096L180.85083333333333,107.19468822479249L181.77354166666666,106.71989192962647L182.69625000000002,106.16615524291993L183.61895833333332,105.77774753570557L184.54166666666666,106.71107997894288L185.46437500000002,105.29450645446778L186.38708333333332,104.59505786895753L187.30979166666665,129.17903652191166L188.23250000000002,108.77973785400391L189.15520833333335,106.16652240753174L190.07791666666665,106.4898895263672L191.00062499999999,106.1006425857544L191.92333333333335,104.73489513397217L192.84604166666665,105.85049858093262L193.76874999999998,105.10761966705323L194.69145833333334,104.81703510284424L195.61416666666668,104.686376953125L196.53687499999998,104.33316459655762L197.45958333333334,104.38530197143555L198.38229166666667,105.16248455047608L199.305,104.79065170288087L200.22770833333334,105.88852634429932L201.15041666666667,104.6572135925293L202.073125,104.63995685577393L202.9958333333333,106.65076007843018L203.91854166666667,105.92886199951172L204.84125,106.3848804473877L205.76395833333333,106.62448158264161L206.68666666666667,105.67216148376465L207.609375,105.91338863372803L208.53208333333333,106.45401229858399L209.45479166666667,105.4247449874878L210.3775,105.57140102386475L211.30020833333333,105.10998001098633L212.2229166666667,104.65910186767579L213.145625,103.71805896759034L214.06833333333333,105.572345161438L214.99104166666666,105.34548988342286L215.91375,105.86948623657227L216.83645833333333,104.99914875030518L217.75916666666666,105.23471107482911L218.68187500000002,106.19112243652344L219.60458333333332,105.3038429260254L220.52729166666666,106.62054767608643L221.45000000000002,105.20135154724122L222.37270833333335,104.51915969848633L223.29541666666665,106.08700504302979L224.21812500000001,104.63948478698731L225.14083333333335,105.70730438232422L226.06354166666665,105.34821739196778" style="fill: none;" fill="none"></path></g><g><path stroke="rgb(204, 51, 17)" stroke-width="2px" d="M171.62375,24.979870223999008L172.54645833333333,25.05959739685057L173.46916666666667,25.429646873474105L174.391875,26.989729309082016L175.31458333333333,27.69368877410887L176.2372916666667,28.189308547973617L177.16,28.360512161254867L178.08270833333333,28.066465759277328L179.00541666666666,33.888909721374496L179.928125,30.282881164550766L180.85083333333333,27.997491264343246L181.77354166666666,28.618786239624008L182.69625000000002,26.813752555847152L183.61895833333332,26.77546253204344L184.54166666666666,26.42607917785643L185.46437500000002,25.73140373229979L186.38708333333332,25.483724975585922L187.30979166666665,52.5262378692627L188.23250000000002,54.9163221359253L189.15520833333335,35.482299232482895L190.07791666666665,29.94598140716551L191.00062499999999,28.213856124877914L191.92333333333335,26.093008422851547L192.84604166666665,25.032584571838363L193.76874999999998,25.043651962280258L194.69145833333334,23.918135070800766L195.61416666666668,23.135235214233383L196.53687499999998,22.656400108337387L197.45958333333334,22.32815494537352L198.38229166666667,22.015015983581527L199.305,21.710531616210922L200.22770833333334,22.0009588241577L201.15041666666667,22.86820163726805L202.073125,22.829754257202133L202.9958333333333,23.36749305725096L203.91854166666667,24.264843368530258L204.84125,27.775304222106918L205.76395833333333,26.769325637817367L206.68666666666667,27.198803329467758L207.609375,26.909792327880844L208.53208333333333,24.86043682098387L209.45479166666667,27.27071514129637L210.3775,24.624140167236312L211.30020833333333,22.981917762756332L212.2229166666667,22.522122764587387L213.145625,25.257604026794418L214.06833333333333,24.36004390716551L214.99104166666666,22.911999130249008L215.91375,22.224876785278305L216.83645833333333,22.043182754516586L217.75916666666666,21.362826728820785L218.68187500000002,22.009875679016098L219.60458333333332,21.897733116149887L220.52729166666666,21.831381225585922L221.45000000000002,22.29080905914305L222.37270833333335,22.076909446716293L223.29541666666665,23.18868389129637L224.21812500000001,26.47491207122801L225.14083333333335,26.35112514495848L226.06354166666665,24.57929363250731" style="fill: none;" fill="none"></path></g><g><path stroke="rgb(0, 119, 187)" stroke-width="2px" d="M153.16958333333335,106.1790584564209L154.09229166666665,105.2056001663208L155.01500000000001,105.42616119384766L155.93770833333335,107.60774841308594L156.86041666666665,105.99736442565919L157.78312499999998,105.18892040252686L158.70583333333335,106.85175647735596L159.62854166666668,104.5944284439087L160.55124999999998,106.99327220916749L161.47395833333334,121.6519521713257L162.39666666666668,109.38671340942383L163.31937499999998,107.17596282958985L164.24208333333334,106.61058177947999L165.16479166666667,104.51286544799805L166.0875,104.40617790222169L167.01020833333334,104.06287899017335L167.93291666666667,105.61630001068116L168.855625,104.68354454040528L169.7783333333333,104.64336624145508L170.70104166666667,104.85464324951172" style="fill: none;" fill="none"></path></g><g><path stroke="rgb(255, 112, 67)" stroke-width="2px" d="M153.16958333333335,28.984115028381332L154.09229166666665,28.830220603942855L155.01500000000001,29.185216331481918L155.93770833333335,29.4757484436035L156.86041666666665,30.24647941589354L157.78312499999998,30.02518405914305L158.70583333333335,29.313356781005844L159.62854166666668,29.009921455383285L160.55124999999998,29.683039093017562L161.47395833333334,39.11082973480223L162.39666666666668,54.54795112609864L163.31937499999998,38.14576377868651L164.24208333333334,32.46536006927489L165.16479166666667,29.177715682983383L166.0875,27.374255561828598L167.01020833333334,26.16696586608885L167.93291666666667,25.27171363830565L168.855625,24.789154434204086L169.7783333333333,24.616849327087387L170.70104166666667,24.851100349426254" style="fill: none;" fill="none"></path></g><g><path stroke="rgb(187, 187, 187)" stroke-width="2px" d="M134.71541666666667,105.69419136047364L135.638125,105.84588279724122L136.56083333333333,106.18293991088868L137.48354166666667,106.85815563201905L138.40625,105.75577011108399L139.32895833333333,105.93919506072999L140.25166666666667,106.26555194854737L141.174375,105.18414726257325L142.09708333333333,114.09706821441652L143.0197916666667,116.44802322387697L143.9425,107.08244075775147L144.86520833333333,105.66119899749756L145.78791666666666,105.36925067901612L146.710625,105.00476112365723L147.63333333333333,105.88679542541504L148.55604166666666,105.47289600372315L149.47875000000002,104.65731849670411L150.40145833333332,105.80203285217286L151.32416666666666,106.01934185028077L152.24687500000002,108.12429656982422" style="fill: none;" fill="none"></path></g><g><path stroke="rgb(0, 153, 136)" stroke-width="2px" d="M134.71541666666667,33.50076427459715L135.638125,33.362080955505355L136.56083333333333,32.64312019348143L137.48354166666667,32.29064216613768L138.40625,32.33895053863524L139.32895833333333,32.21254100799559L140.25166666666667,32.870867156982406L141.174375,32.49494304656981L142.09708333333333,36.21217002868651L143.0197916666667,54.751517677307135L143.9425,48.25915565490723L144.86520833333333,37.022449874877914L145.78791666666666,33.085710906982406L146.710625,30.96040477752684L147.63333333333333,29.682252311706527L148.55604166666666,29.01228179931639L149.47875000000002,28.464524650573715L150.40145833333332,29.17991867065428L151.32416666666666,29.047949218749984L152.24687500000002,28.958046340942367" style="fill: none;" fill="none"></path></g><g><path stroke="rgb(238, 51, 119)" stroke-width="2px" d="M116.26124999999999,111.00008716583254L117.18395833333334,109.27488555908204L118.10666666666667,118.73026599884035L119.029375,110.25222530364992L119.95208333333333,106.92020645141602L120.87479166666667,105.47787895202637L121.7975,107.19369163513184L122.72020833333335,109.6344446182251L123.64291666666666,105.62568893432618L124.565625,106.2818645477295L125.48833333333333,105.87126960754395L126.41104166666666,105.65448513031006L127.33375000000001,105.62259426116944L128.25645833333334,106.30625476837159L129.17916666666667,109.02830829620362L130.101875,107.81210174560547L131.02458333333334,107.04409828186036L131.94729166666667,107.67813911437989L132.87,106.50940170288087L133.79270833333334,108.30006351470948" style="fill: none;" fill="none"></path></g><g><path stroke="rgb(51, 187, 238)" stroke-width="2px" d="M116.26124999999999,40.53243865966795L117.18395833333334,44.86875762939454L118.10666666666667,53.53011837005616L119.029375,51.97874298095704L119.95208333333333,44.23744430541993L120.87479166666667,39.69734897613524L121.7975,37.184264564514145L122.72020833333335,36.2813543319702L123.64291666666666,36.26394023895262L124.565625,34.42030181884764L125.48833333333333,34.96239414215086L126.41104166666666,34.130818748474105L127.33375000000001,33.53333702087401L128.25645833333334,34.63467350006102L129.17916666666667,34.96727218627928L130.101875,39.26351776123045L131.02458333333334,37.99501647949217L131.94729166666667,36.9773935317993L132.87,36.30427589416502L133.79270833333334,34.397380256652816" style="fill: none;" fill="none"></path></g><g><path stroke="rgb(187, 187, 187)" stroke-width="2px" d="M97.80708333333334,107.55807628631592L98.72979166666667,108.7839340209961L99.6525,108.0140422821045L100.57520833333334,108.14889659881592L101.49791666666665,108.46680870056153L102.420625,107.2351287841797L103.34333333333333,106.90677871704102L104.26604166666667,109.12618389129639L105.18875,107.09681262969971L106.11145833333335,107.41692771911622L107.03416666666666,124.47686424255373L107.956875,111.48301353454592L108.87958333333333,106.55802478790284L109.80229166666666,106.54895057678223L110.72500000000001,106.17701282501221L111.64770833333333,106.85983409881592L112.57041666666667,106.8255828857422L113.49312499999999,106.20885124206544L114.41583333333334,108.85621299743653L115.33854166666667,106.88768615722657" style="fill: none;" fill="none"></path></g><g><path stroke="rgb(0, 153, 136)" stroke-width="2px" d="M97.80708333333334,50.78446140289307L98.72979166666667,45.94108810424805L99.6525,45.5438159942627L100.57520833333334,43.64269008636473L101.49791666666665,43.02448978424071L102.420625,42.08979358673094L103.34333333333333,41.54072513580321L104.26604166666667,43.33054771423338L105.18875,40.765693092346176L106.11145833333335,39.53422298431395L107.03416666666666,47.79144039154053L107.956875,52.11401691436768L108.87958333333333,43.19847335815428L109.80229166666666,39.56044902801512L110.72500000000001,37.69703617095946L111.64770833333333,36.26430740356444L112.57041666666667,35.151955986022934L113.49312499999999,34.782955551147445L114.41583333333334,34.8446392059326L115.33854166666667,34.924628639221176" style="fill: none;" fill="none"></path></g><g><path stroke="rgb(238, 51, 119)" stroke-width="2px" d="M79.35291666666667,109.40334072113038L80.27562499999999,108.84309997558594L81.19833333333334,112.62500038146975L82.12104166666667,107.87394275665284L83.04375,111.11584892272951L83.96645833333334,108.40003719329835L84.88916666666665,108.87047996520997L85.811875,108.11207523345948L86.73458333333333,108.84608974456788L87.65729166666667,106.43570652008057L88.58,106.83324089050294L89.50270833333333,119.12150611877443L90.42541666666666,111.00197544097902L91.34812500000001,110.19405593872072L92.27083333333333,107.40575542449952L93.19354166666666,106.59474124908448L94.11625000000001,107.45039215087891L95.03895833333333,107.94533004760743L95.96166666666667,112.48432388305666L96.88437499999999,115.74186077117922" style="fill: none;" fill="none"></path></g><g><path stroke="rgb(51, 187, 238)" stroke-width="2px" d="M79.35291666666667,69.2861484527588L80.27562499999999,63.05017223358155L81.19833333333334,64.19163455963135L82.12104166666667,64.18471088409424L83.04375,62.554132843017584L83.96645833333334,57.902104759216314L84.88916666666665,55.946848297119146L85.811875,53.995106124877935L86.73458333333333,52.520730400085455L87.65729166666667,51.535155677795416L88.58,50.68275680541993L89.50270833333333,53.54485740661622L90.42541666666666,60.521666908264166L91.34812500000001,53.53232135772706L92.27083333333333,49.98299350738526L93.19354166666666,46.55892124176026L94.11625000000001,46.184885406494146L95.03895833333333,45.34974327087403L95.96166666666667,47.02459087371827L96.88437499999999,52.528335952758795" style="fill: none;" fill="none"></path></g><g><path stroke="rgb(204, 51, 17)" stroke-width="2px" d="M60.89875,156.45296802520755L61.82145833333333,156.19076004028324L62.744166666666665,160.77439060211185L63.666875000000005,152.61531105041507L64.58958333333334,150.00094165802005L65.51229166666667,148.82868995666507L66.435,157.61184444427494L67.35770833333333,161.90950622558597L68.28041666666667,155.1514743804932L69.203125,152.41735687255863L70.12583333333333,148.15510025024417L71.04854166666667,149.19302215576175L71.97125,149.26000347137455L72.89395833333333,149.7357439041138L73.81666666666666,162.41472473144535L74.73937500000001,149.02952899932865L75.66208333333333,147.94697036743167L76.58479166666667,145.42245140075687L77.50750000000001,142.47039546966556L78.43020833333333,148.7242053985596" style="fill: none;" fill="none"></path></g><g><path stroke="rgb(0, 119, 187)" stroke-width="2px" d="M60.89875,174.9442695617676L61.82145833333333,156.5885042190552L62.744166666666665,151.19742622375492L63.666875000000005,148.59087219238285L64.58958333333334,146.02218856811527L65.51229166666667,143.87160053253177L66.435,142.04532375335697L67.35770833333333,143.4713386535645L68.28041666666667,139.0738605499268L69.203125,138.8279127120972L70.12583333333333,138.85382404327396L71.04854166666667,137.49022712707523L71.97125,136.02204074859623L72.89395833333333,135.16576042175296L73.81666666666666,133.95721187591556L74.73937500000001,135.73093166351322L75.66208333333333,134.02796974182132L76.58479166666667,132.28792419433597L77.50750000000001,129.34877147674564L78.43020833333333,128.83028259277347" style="fill: none;" fill="none"></path></g><g><path stroke="rgb(255, 112, 67)" stroke-width="2px" d="M49.82625,124.4001792907715L50.74895833333333,119.69643344879152L51.67166666666667,120.01182785034182L52.594375,120.41392555236818L53.51708333333333,120.08945693969729L54.439791666666665,115.55140724182131L55.362500000000004,116.59829845428469L56.28520833333334,118.4291910171509L57.20791666666667,122.49202480316164L58.130624999999995,118.58303298950197L59.053333333333335,117.83207645416262L59.97604166666667,118.15470924377443" style="fill: none;" fill="none"></path></g><g><path stroke="rgb(187, 187, 187)" stroke-width="2px" d="M49.82625,92.88581123352051L50.74895833333333,86.80441131591797L51.67166666666667,83.28996410369874L52.594375,80.57320823669434L53.51708333333333,78.2177947998047L54.439791666666665,78.81921043395997L55.362500000000004,73.94074668884278L56.28520833333334,71.658451461792L57.20791666666667,73.3191370010376L58.130624999999995,74.35920944213868L59.053333333333335,70.96283187866212L59.97604166666667,69.18360462188721" style="fill: none;" fill="none"></path></g><g><path stroke="rgb(51, 187, 238)" stroke-width="2px" d="M36.90833333333333,140.31975498199466L37.831041666666664,135.018842124939L38.753750000000004,130.843078994751L39.676458333333336,128.26133480072025L40.59916666666667,130.5543302536011L41.521875,129.1216539382935L42.44458333333333,125.14568080902102L43.36729166666667,127.66390552520754L44.29,138.61369838714603L45.21270833333333,125.72548618316652L46.135416666666664,125.43663253784182L47.058125000000004,125.78932037353518L47.98083333333334,123.6257766723633L48.90354166666667,137.47113456726078" style="fill: none;" fill="none"></path></g><g><path stroke="rgb(204, 51, 17)" stroke-width="2px" d="M36.90833333333333,129.23788776397708L37.831041666666664,123.91573181152346L38.753750000000004,118.0352233886719L39.676458333333336,115.9496759414673L40.59916666666667,112.94338455200197L41.521875,111.82809581756594L42.44458333333333,109.64598407745362L43.36729166666667,106.78362121582032L44.29,105.83166828155518L45.21270833333333,103.50977172851563L46.135416666666664,103.29398384094239L47.058125000000004,99.50421562194825L47.98083333333334,97.34843482971192L48.90354166666667,98.04882755279542" style="fill: none;" fill="none"></path></g><g><path stroke="rgb(255, 112, 67)" stroke-width="2px" d="M24.913125,178.8132404327393L25.835833333333333,171.78890933990482L26.758541666666666,168.7070869445801L27.681250000000002,159.24373378753666L28.603958333333335,149.40120449066166L29.526666666666667,149.58987464904789L30.449375,139.88581886291507L31.372083333333332,151.82915916442875L32.29479166666667,139.23378696441654L33.2175,134.33544387817386L34.140208333333334,136.43441905975345L35.062916666666666,132.25592842102054L35.985625,134.6293329238892" style="fill: none;" fill="none"></path></g><g><path stroke="rgb(187, 187, 187)" stroke-width="2px" d="M23.99041666666667,186.0708784103394L24.913125,173.73162975311283L25.835833333333333,165.0027631759644L26.758541666666666,155.40109386444095L27.681250000000002,148.07904472351078L28.603958333333335,141.53255214691166L29.526666666666667,135.91482868194583L30.449375,130.64753761291507L31.372083333333332,128.1305192947388L32.29479166666667,124.01633491516115L33.2175,119.11216964721682L34.140208333333334,116.83254947662356L35.062916666666666,114.48421707153322L35.985625,110.42154064178469" style="fill: none;" fill="none"></path></g></g></g></g></g></g><g transform="translate(53, 176)" clip-path="url(#clip_1)"><clipPath id="clip_1"><rect width="276" height="23"></rect></clipPath><g><g><line x1="0" y1="0" x2="0" y2="5" style="visibility: inherit;" fill="rgb(0, 0, 0)" stroke="rgb(204, 204, 204)" stroke-width="1px"></line><line x1="18.454166666666666" y1="0" x2="18.454166666666666" y2="5" style="visibility: inherit;" fill="rgb(0, 0, 0)" stroke="rgb(204, 204, 204)" stroke-width="1px"></line><line x1="36.90833333333333" y1="0" x2="36.90833333333333" y2="5" style="visibility: inherit;" fill="rgb(0, 0, 0)" stroke="rgb(204, 204, 204)" stroke-width="1px"></line><line x1="55.362500000000004" y1="0" x2="55.362500000000004" y2="5" style="visibility: inherit;" fill="rgb(0, 0, 0)" stroke="rgb(204, 204, 204)" stroke-width="1px"></line><line x1="73.81666666666666" y1="0" x2="73.81666666666666" y2="5" style="visibility: inherit;" fill="rgb(0, 0, 0)" stroke="rgb(204, 204, 204)" stroke-width="1px"></line><line x1="92.27083333333333" y1="0" x2="92.27083333333333" y2="5" style="visibility: inherit;" fill="rgb(0, 0, 0)" stroke="rgb(204, 204, 204)" stroke-width="1px"></line><line x1="110.72500000000001" y1="0" x2="110.72500000000001" y2="5" style="visibility: inherit;" fill="rgb(0, 0, 0)" stroke="rgb(204, 204, 204)" stroke-width="1px"></line><line x1="129.17916666666667" y1="0" x2="129.17916666666667" y2="5" style="visibility: inherit;" fill="rgb(0, 0, 0)" stroke="rgb(204, 204, 204)" stroke-width="1px"></line><line x1="147.63333333333333" y1="0" x2="147.63333333333333" y2="5" style="visibility: inherit;" fill="rgb(0, 0, 0)" stroke="rgb(204, 204, 204)" stroke-width="1px"></line><line x1="166.0875" y1="0" x2="166.0875" y2="5" style="visibility: inherit;" fill="rgb(0, 0, 0)" stroke="rgb(204, 204, 204)" stroke-width="1px"></line><line x1="184.54166666666666" y1="0" x2="184.54166666666666" y2="5" style="visibility: inherit;" fill="rgb(0, 0, 0)" stroke="rgb(204, 204, 204)" stroke-width="1px"></line><line x1="202.9958333333333" y1="0" x2="202.9958333333333" y2="5" style="visibility: inherit;" fill="rgb(0, 0, 0)" stroke="rgb(204, 204, 204)" stroke-width="1px"></line><line x1="221.45000000000002" y1="0" x2="221.45000000000002" y2="5" style="visibility: inherit;" fill="rgb(0, 0, 0)" stroke="rgb(204, 204, 204)" stroke-width="1px"></line><line x1="239.90416666666667" y1="0" x2="239.90416666666667" y2="5" style="visibility: inherit;" fill="rgb(0, 0, 0)" stroke="rgb(204, 204, 204)" stroke-width="1px"></line><line x1="258.35833333333335" y1="0" x2="258.35833333333335" y2="5" style="visibility: inherit;" fill="rgb(0, 0, 0)" stroke="rgb(204, 204, 204)" stroke-width="1px"></line><line x1="276.8125" y1="0" x2="276.8125" y2="5" style="visibility: inherit;" fill="rgb(0, 0, 0)" stroke="rgb(204, 204, 204)" stroke-width="1px"></line></g><g transform="translate(0, 8)"><text x="0" y="0" dx="0em" dy="0.95em" style="text-anchor: middle; visibility: hidden; font-family: Roboto, sans-serif; font-size: 12px; font-weight: 200;" fill="rgb(33, 33, 33)" stroke="none" stroke-width="1px">-20</text><text x="18.454166666666666" y="0" dx="0em" dy="0.95em" style="text-anchor: middle; visibility: inherit; font-family: Roboto, sans-serif; font-size: 12px; font-weight: 200;" fill="rgb(33, 33, 33)" stroke="none" stroke-width="1px">0</text><text x="36.90833333333333" y="0" dx="0em" dy="0.95em" style="text-anchor: middle; visibility: hidden; font-family: Roboto, sans-serif; font-size: 12px; font-weight: 200;" fill="rgb(33, 33, 33)" stroke="none" stroke-width="1px">20</text><text x="55.362500000000004" y="0" dx="0em" dy="0.95em" style="text-anchor: middle; visibility: inherit; font-family: Roboto, sans-serif; font-size: 12px; font-weight: 200;" fill="rgb(33, 33, 33)" stroke="none" stroke-width="1px">40</text><text x="73.81666666666666" y="0" dx="0em" dy="0.95em" style="text-anchor: middle; visibility: hidden; font-family: Roboto, sans-serif; font-size: 12px; font-weight: 200;" fill="rgb(33, 33, 33)" stroke="none" stroke-width="1px">60</text><text x="92.27083333333333" y="0" dx="0em" dy="0.95em" style="text-anchor: middle; visibility: inherit; font-family: Roboto, sans-serif; font-size: 12px; font-weight: 200;" fill="rgb(33, 33, 33)" stroke="none" stroke-width="1px">80</text><text x="110.72500000000001" y="0" dx="0em" dy="0.95em" style="text-anchor: middle; visibility: hidden; font-family: Roboto, sans-serif; font-size: 12px; font-weight: 200;" fill="rgb(33, 33, 33)" stroke="none" stroke-width="1px">100</text><text x="129.17916666666667" y="0" dx="0em" dy="0.95em" style="text-anchor: middle; visibility: inherit; font-family: Roboto, sans-serif; font-size: 12px; font-weight: 200;" fill="rgb(33, 33, 33)" stroke="none" stroke-width="1px">120</text><text x="147.63333333333333" y="0" dx="0em" dy="0.95em" style="text-anchor: middle; visibility: hidden; font-family: Roboto, sans-serif; font-size: 12px; font-weight: 200;" fill="rgb(33, 33, 33)" stroke="none" stroke-width="1px">140</text><text x="166.0875" y="0" dx="0em" dy="0.95em" style="text-anchor: middle; visibility: inherit; font-family: Roboto, sans-serif; font-size: 12px; font-weight: 200;" fill="rgb(33, 33, 33)" stroke="none" stroke-width="1px">160</text><text x="184.54166666666666" y="0" dx="0em" dy="0.95em" style="text-anchor: middle; visibility: hidden; font-family: Roboto, sans-serif; font-size: 12px; font-weight: 200;" fill="rgb(33, 33, 33)" stroke="none" stroke-width="1px">180</text><text x="202.9958333333333" y="0" dx="0em" dy="0.95em" style="text-anchor: middle; visibility: inherit; font-family: Roboto, sans-serif; font-size: 12px; font-weight: 200;" fill="rgb(33, 33, 33)" stroke="none" stroke-width="1px">200</text><text x="221.45000000000002" y="0" dx="0em" dy="0.95em" style="text-anchor: middle; visibility: hidden; font-family: Roboto, sans-serif; font-size: 12px; font-weight: 200;" fill="rgb(33, 33, 33)" stroke="none" stroke-width="1px">220</text><text x="239.90416666666667" y="0" dx="0em" dy="0.95em" style="text-anchor: middle; visibility: inherit; font-family: Roboto, sans-serif; font-size: 12px; font-weight: 200;" fill="rgb(33, 33, 33)" stroke="none" stroke-width="1px">240</text><text x="258.35833333333335" y="0" dx="0em" dy="0.95em" style="text-anchor: middle; visibility: hidden; font-family: Roboto, sans-serif; font-size: 12px; font-weight: 200;" fill="rgb(33, 33, 33)" stroke="none" stroke-width="1px">260</text><text x="276.8125" y="0" dx="0em" dy="0.95em" style="text-anchor: middle; visibility: hidden; font-family: Roboto, sans-serif; font-size: 12px; font-weight: 200;" fill="rgb(33, 33, 33)" stroke="none" stroke-width="1px">280</text></g><line x1="0" y1="0" x2="276.8125" y2="0" fill="rgb(0, 0, 0)" stroke="rgb(204, 204, 204)" stroke-width="1px"></line></g></g></g></g></svg>