<svg viewBox="0 0 330 200" xmlns="http://www.w3.org/2000/svg"><g><g><g><g><g><line x1="41.171875" y1="177" x2="36.171875" y2="177" style="visibility: inherit;" fill="rgb(0, 0, 0)" stroke="rgb(204, 204, 204)" stroke-width="1px"></line><line x1="41.171875" y1="157.33333333333331" x2="36.171875" y2="157.33333333333331" style="visibility: inherit;" fill="rgb(0, 0, 0)" stroke="rgb(204, 204, 204)" stroke-width="1px"></line><line x1="41.171875" y1="137.66666666666666" x2="36.171875" y2="137.66666666666666" style="visibility: inherit;" fill="rgb(0, 0, 0)" stroke="rgb(204, 204, 204)" stroke-width="1px"></line><line x1="41.171875" y1="118" x2="36.171875" y2="118" style="visibility: inherit;" fill="rgb(0, 0, 0)" stroke="rgb(204, 204, 204)" stroke-width="1px"></line><line x1="41.171875" y1="98.33333333333334" x2="36.171875" y2="98.33333333333334" style="visibility: inherit;" fill="rgb(0, 0, 0)" stroke="rgb(204, 204, 204)" stroke-width="1px"></line><line x1="41.171875" y1="78.66666666666666" x2="36.171875" y2="78.66666666666666" style="visibility: inherit;" fill="rgb(0, 0, 0)" stroke="rgb(204, 204, 204)" stroke-width="1px"></line><line x1="41.171875" y1="59.00000000000001" x2="36.171875" y2="59.00000000000001" style="visibility: inherit;" fill="rgb(0, 0, 0)" stroke="rgb(204, 204, 204)" stroke-width="1px"></line><line x1="41.171875" y1="39.33333333333333" x2="36.171875" y2="39.33333333333333" style="visibility: inherit;" fill="rgb(0, 0, 0)" stroke="rgb(204, 204, 204)" stroke-width="1px"></line><line x1="41.171875" y1="19.666666666666657" x2="36.171875" y2="19.666666666666657" style="visibility: inherit;" fill="rgb(0, 0, 0)" stroke="rgb(204, 204, 204)" stroke-width="1px"></line><line x1="41.171875" y1="0" x2="36.171875" y2="0" style="visibility: inherit;" fill="rgb(0, 0, 0)" stroke="rgb(204, 204, 204)" stroke-width="1px"></line></g><g transform="translate(31.171875, 0)"><text x="0" y="177" dx="0em" dy="0.3em" style="text-anchor: end; visibility: hidden; font-family: Roboto, sans-serif; font-size: 12px; font-weight: 200;" fill="rgb(33, 33, 33)" stroke="none" stroke-width="1px">0.1</text><text x="0" y="157.33333333333331" dx="0em" dy="0.3em" style="text-anchor: end; visibility: inherit; font-family: Roboto, sans-serif; font-size: 12px; font-weight: 200;" fill="rgb(33, 33, 33)" stroke="none" stroke-width="1px">0.2</text><text x="0" y="137.66666666666666" dx="0em" dy="0.3em" style="text-anchor: end; visibility: hidden; font-family: Roboto, sans-serif; font-size: 12px; font-weight: 200;" fill="rgb(33, 33, 33)" stroke="none" stroke-width="1px">0.3</text><text x="0" y="118" dx="0em" dy="0.3em" style="text-anchor: end; visibility: inherit; font-family: Roboto, sans-serif; font-size: 12px; font-weight: 200;" fill="rgb(33, 33, 33)" stroke="none" stroke-width="1px">0.4</text><text x="0" y="98.33333333333334" dx="0em" dy="0.3em" style="text-anchor: end; visibility: hidden; font-family: Roboto, sans-serif; font-size: 12px; font-weight: 200;" fill="rgb(33, 33, 33)" stroke="none" stroke-width="1px">0.5</text><text x="0" y="78.66666666666666" dx="0em" dy="0.3em" style="text-anchor: end; visibility: inherit; font-family: Roboto, sans-serif; font-size: 12px; font-weight: 200;" fill="rgb(33, 33, 33)" stroke="none" stroke-width="1px">0.6</text><text x="0" y="59.00000000000001" dx="0em" dy="0.3em" style="text-anchor: end; visibility: hidden; font-family: Roboto, sans-serif; font-size: 12px; font-weight: 200;" fill="rgb(33, 33, 33)" stroke="none" stroke-width="1px">0.7</text><text x="0" y="39.33333333333333" dx="0em" dy="0.3em" style="text-anchor: end; visibility: inherit; font-family: Roboto, sans-serif; font-size: 12px; font-weight: 200;" fill="rgb(33, 33, 33)" stroke="none" stroke-width="1px">0.8</text><text x="0" y="19.666666666666657" dx="0em" dy="0.3em" style="text-anchor: end; visibility: hidden; font-family: Roboto, sans-serif; font-size: 12px; font-weight: 200;" fill="rgb(33, 33, 33)" stroke="none" stroke-width="1px">0.9</text><text x="0" y="0" dx="0em" dy="0.3em" style="text-anchor: end; visibility: hidden; font-family: Roboto, sans-serif; font-size: 12px; font-weight: 200;" fill="rgb(33, 33, 33)" stroke="none" stroke-width="1px">1</text></g><line x1="41.171875" y1="0" x2="41.171875" y2="177" fill="rgb(0, 0, 0)" stroke="rgb(204, 204, 204)" stroke-width="1px"></line></g></g><g transform="translate(41, 0)" clip-path="url(#clip_0)"><clipPath id="clip_0"><rect width="288" height="176"></rect></clipPath><g><g><g><line x1="0" y1="0" x2="0" y2="177" fill="rgb(0, 0, 0)" stroke="rgb(66, 66, 66)" stroke-width="1px" opacity="0.25"></line><line x1="19.255208333333332" y1="0" x2="19.255208333333332" y2="177" fill="rgb(0, 0, 0)" stroke="rgb(66, 66, 66)" stroke-width="1px" opacity="0.25"></line><line x1="38.510416666666664" y1="0" x2="38.510416666666664" y2="177" fill="rgb(0, 0, 0)" stroke="rgb(66, 66, 66)" stroke-width="1px" opacity="0.25"></line><line x1="57.765625" y1="0" x2="57.765625" y2="177" fill="rgb(0, 0, 0)" stroke="rgb(66, 66, 66)" stroke-width="1px" opacity="0.25"></line><line x1="77.02083333333333" y1="0" x2="77.02083333333333" y2="177" fill="rgb(0, 0, 0)" stroke="rgb(66, 66, 66)" stroke-width="1px" opacity="0.25"></line><line x1="96.27604166666666" y1="0" x2="96.27604166666666" y2="177" fill="rgb(0, 0, 0)" stroke="rgb(66, 66, 66)" stroke-width="1px" opacity="0.25"></line><line x1="115.53125" y1="0" x2="115.53125" y2="177" fill="rgb(0, 0, 0)" stroke="rgb(66, 66, 66)" stroke-width="1px" opacity="0.25"></line><line x1="134.78645833333334" y1="0" x2="134.78645833333334" y2="177" fill="rgb(0, 0, 0)" stroke="rgb(66, 66, 66)" stroke-width="1px" opacity="0.25"></line><line x1="154.04166666666666" y1="0" x2="154.04166666666666" y2="177" fill="rgb(0, 0, 0)" stroke="rgb(66, 66, 66)" stroke-width="1px" opacity="0.25"></line><line x1="173.296875" y1="0" x2="173.296875" y2="177" fill="rgb(0, 0, 0)" stroke="rgb(66, 66, 66)" stroke-width="1px" opacity="0.25"></line><line x1="192.55208333333331" y1="0" x2="192.55208333333331" y2="177" fill="rgb(0, 0, 0)" stroke="rgb(66, 66, 66)" stroke-width="1px" opacity="0.25"></line><line x1="211.80729166666666" y1="0" x2="211.80729166666666" y2="177" fill="rgb(0, 0, 0)" stroke="rgb(66, 66, 66)" stroke-width="1px" opacity="0.25"></line><line x1="231.0625" y1="0" x2="231.0625" y2="177" fill="rgb(0, 0, 0)" stroke="rgb(66, 66, 66)" stroke-width="1px" opacity="0.25"></line><line x1="250.31770833333334" y1="0" x2="250.31770833333334" y2="177" fill="rgb(0, 0, 0)" stroke="rgb(66, 66, 66)" stroke-width="1px" opacity="0.25"></line><line x1="269.5729166666667" y1="0" x2="269.5729166666667" y2="177" fill="rgb(0, 0, 0)" stroke="rgb(66, 66, 66)" stroke-width="1px" opacity="0.25"></line><line x1="288.828125" y1="0" x2="288.828125" y2="177" fill="rgb(0, 0, 0)" stroke="rgb(66, 66, 66)" stroke-width="1px" opacity="0.25"></line></g><g><line x1="0" y1="177" x2="288.828125" y2="177" fill="rgb(0, 0, 0)" stroke="rgb(66, 66, 66)" stroke-width="1px" opacity="0.25"></line><line x1="0" y1="157.33333333333331" x2="288.828125" y2="157.33333333333331" fill="rgb(0, 0, 0)" stroke="rgb(66, 66, 66)" stroke-width="1px" opacity="0.25"></line><line x1="0" y1="137.66666666666666" x2="288.828125" y2="137.66666666666666" fill="rgb(0, 0, 0)" stroke="rgb(66, 66, 66)" stroke-width="1px" opacity="0.25"></line><line x1="0" y1="118" x2="288.828125" y2="118" fill="rgb(0, 0, 0)" stroke="rgb(66, 66, 66)" stroke-width="1px" opacity="0.25"></line><line x1="0" y1="98.33333333333334" x2="288.828125" y2="98.33333333333334" fill="rgb(0, 0, 0)" stroke="rgb(66, 66, 66)" stroke-width="1px" opacity="0.25"></line><line x1="0" y1="78.66666666666666" x2="288.828125" y2="78.66666666666666" fill="rgb(0, 0, 0)" stroke="rgb(66, 66, 66)" stroke-width="1px" opacity="0.25"></line><line x1="0" y1="59.00000000000001" x2="288.828125" y2="59.00000000000001" fill="rgb(0, 0, 0)" stroke="rgb(66, 66, 66)" stroke-width="1px" opacity="0.25"></line><line x1="0" y1="39.33333333333333" x2="288.828125" y2="39.33333333333333" fill="rgb(0, 0, 0)" stroke="rgb(66, 66, 66)" stroke-width="1px" opacity="0.25"></line><line x1="0" y1="19.666666666666657" x2="288.828125" y2="19.666666666666657" fill="rgb(0, 0, 0)" stroke="rgb(66, 66, 66)" stroke-width="1px" opacity="0.25"></line><line x1="0" y1="0" x2="288.828125" y2="0" fill="rgb(0, 0, 0)" stroke="rgb(66, 66, 66)" stroke-width="1px" opacity="0.25"></line></g></g></g><g><g><line x1="0" y1="196.66666666666669" x2="288.828125" y2="196.66666666666669" fill="rgb(0, 0, 0)" stroke="rgb(153, 153, 153)" stroke-width="1.5px"></line></g></g><g><g><line x1="19.255208333333332" y1="0" x2="19.255208333333332" y2="177" fill="rgb(0, 0, 0)" stroke="rgb(153, 153, 153)" stroke-width="1.5px"></line></g></g><g><g><g><g><g><path stroke="rgb(0, 153, 136)" stroke-width="2px" d="M236.83906249999998,38.48397215207417L237.80182291666668,35.634484440088265L238.76458333333332,30.918790515588217L239.72734375,26.814725201065613L240.69010416666669,27.47505078719991L241.65286458333333,28.40256058285194L242.615625,33.66026156039606L243.5783854166667,22.114182145937L244.54114583333333,23.22529228652752L245.50390625,21.64443943585898L246.46666666666667,22.07652201524146L247.42942708333334,21.568502862719072L248.3921875,21.657660510279715L249.35494791666665,27.38409052083448L250.31770833333334,44.21883806296614L251.28046875,51.146055454845694L252.24322916666665,52.513501996999445L253.20598958333335,49.984613891232755L254.16875,47.048784233344264L255.13151041666666,40.409000189183836L256.0942708333333,38.09000260977108L257.05703125,35.008477385341095L258.01979166666666,31.904599243846302L258.9825520833333,29.15926107756725L259.9453125,27.01325066121055L260.90807291666664,24.08310084733972L261.87083333333334,22.321830392441562L262.83359375000003,23.373499523048142L263.7963541666667,19.536658349812466L264.7591145833333,22.447420102030062L265.721875,19.940252612267464L266.68463541666665,27.57751909692739L267.64739583333335,27.861790001851773L268.61015625,31.22460645562928L269.5729166666667,40.87583289521041L270.5356770833333,34.35167774371639L271.49843749999997,27.51730428765006" style="fill: none;" fill="none"></path></g><g><path stroke="rgb(238, 51, 119)" stroke-width="2px" d="M236.83906249999998,163.99791359901428L237.80182291666668,161.3292140699923L238.76458333333332,160.90788059798228L239.72734375,162.046571669954L240.69010416666669,162.56003942843006L241.65286458333333,163.21702668477334L242.615625,163.6838659760961L243.5783854166667,164.56964201317658L244.54114583333333,165.29064667306258L245.50390625,165.75214833617676L246.46666666666667,166.41873022299302L247.42942708333334,166.90238334047905L248.3921875,167.25819084598882L249.35494791666665,166.96186835610814L250.31770833333334,139.25175061716L251.28046875,140.73988603488826L252.24322916666665,145.897681290816L253.20598958333335,150.88842086615054L254.16875,155.08876725599214L255.13151041666666,158.48168871879304L256.0942708333333,161.0912702068198L257.05703125,162.90823688996264L258.01979166666666,164.25214100774983L258.9825520833333,165.37699625763088L259.9453125,166.2240781580299L260.90807291666664,166.94112980660364L261.87083333333334,167.35158807900152L262.83359375000003,166.89081392324368L263.7963541666667,166.94231358063186L264.7591145833333,166.14801975547215L265.721875,164.7492308497245L266.68463541666665,164.33784076753318L267.64739583333335,163.40544751314263L268.61015625,163.18821797758588L269.5729166666667,162.84905546314755L270.5356770833333,163.33041382376481L271.49843749999997,164.5368814893372" style="fill: none;" fill="none"></path></g><g><path stroke="rgb(51, 187, 238)" stroke-width="2px" d="M179.0734375,28.96170973777771L180.03619791666665,26.168144469459822L180.99895833333335,25.28081897975634L181.96171875,30.06703486629561L182.92447916666666,31.59898070213062L183.88723958333335,32.23278161110286L184.85,36.32146376197081L185.81276041666666,36.787380724947724L186.77552083333333,38.76679891223468L187.73828125,30.70959886484654L188.70104166666667,34.943290145287676L189.6638020833333,34.988115446556016L190.6265625,33.266265111629494L191.58932291666667,34.737315031656415L192.55208333333331,36.45090214290821L193.51484375,30.171280791808307L194.47760416666668,32.223701561366944L195.44036458333332,45.528566931890346L196.40312500000002,49.65646805687659L197.36588541666666,51.22842294804462L198.32864583333333,48.09774514430121L199.29140625,46.93052891230422L200.25416666666666,44.16871840207996L201.21692708333333,38.10227858118708L202.1796875,34.86604994618489L203.14244791666667,33.17279788748867L204.10520833333334,32.87274560157562L205.06796874999998,29.695507567007727L206.03072916666667,26.99052902584253L206.99348958333334,28.107548002135356L207.95624999999998,30.43995529181929L208.91901041666668,29.968913218245614L209.88177083333335,30.44902181188029L210.84453125,33.12771265766549L211.80729166666666,30.728422511468438L212.77005208333335,32.605770751637465L213.7328125,33.85080413285648L214.69557291666666,33.90054740286713L215.65833333333333,35.635956834309376L216.62109375,36.16999024853155L217.58385416666667,37.13304262261371L218.54661458333334,38.83647231879818L219.509375,35.48555065270658L220.47213541666665,33.11028573318734L221.43489583333334,32.89875443816618L222.39765625,32.38608934105479L223.36041666666665,30.84315302537693L224.32317708333332,32.522430832623265L225.28593750000002,32.21802489882625L226.24869791666666,34.691037596837305L227.21145833333333,32.804539836383036L228.17421875000002,29.983849905087002L229.13697916666666,25.168755997502412L230.09973958333333,25.445053269039054L231.0625,23.437048806489514L232.02526041666667,20.259345102551983L232.98802083333334,20.038958705411353L233.95078125,23.503965566722616L234.91354166666667,24.653554934363495L235.87630208333334,26.29508466210034" style="fill: none;" fill="none"></path></g><g><path stroke="rgb(204, 51, 17)" stroke-width="2px" d="M179.0734375,163.4974674383799L180.03619791666665,163.48275968184075L180.99895833333335,163.32716143354267L181.96171875,162.65219997815495L182.92447916666666,162.12169394462356L183.88723958333335,161.65448230546204L184.85,161.33022032475685L185.81276041666666,161.21317597068517L186.77552083333333,159.27949908039648L187.73828125,159.3018239551123L188.70104166666667,160.04545782559282L189.6638020833333,160.2174288170939L190.6265625,160.96063521092157L191.58932291666667,161.38604901504976L192.55208333333331,161.76088878183L193.51484375,162.18409847819845L194.47760416666668,162.5316596531282L195.44036458333332,152.62682519686493L196.40312500000002,146.7496120381344L197.36588541666666,150.07005283504813L198.32864583333333,153.83981667088514L199.29140625,156.60301024081815L200.25416666666666,158.9864432351946L201.21692708333333,160.74169109705073L202.1796875,161.75105060272438L203.14244791666667,162.7519850229567L204.10520833333334,163.62701541110505L205.06796874999998,164.29935249801943L206.03072916666667,164.80817972364335L206.99348958333334,165.22617481696068L207.95624999999998,165.58246384348269L208.91901041666668,165.70392452820693L209.88177083333335,165.50445092646171L210.84453125,165.40866960565734L211.80729166666666,165.18227737443178L212.77005208333335,164.74602194949944L213.7328125,163.34767026229545L214.69557291666666,162.86098662348977L215.65833333333333,162.42877016368013L216.62109375,162.24033174828833L217.58385416666667,162.78139586044722L218.54661458333334,162.39416103419921L219.509375,162.9514928115463L220.47213541666665,163.7827932311379L221.43489583333334,164.4521392071913L222.39765625,163.9565283666542L223.36041666666665,163.94782922330413L224.32317708333332,164.42501301565594L225.28593750000002,164.93638808528573L226.24869791666666,165.2858410775689L227.21145833333333,165.7332435548344L228.17421875000002,165.80759745637826L229.13697916666666,165.88879844625956L230.09973958333333,165.95224218217638L231.0625,165.84663236130135L232.02526041666667,165.84370988998128L232.98802083333334,165.48272463715057L233.95078125,164.14394169868598L234.91354166666667,163.4656052976145L235.87630208333334,163.61296491956475" style="fill: none;" fill="none"></path></g><g><path stroke="rgb(0, 119, 187)" stroke-width="2px" d="M159.81822916666667,42.04454600811004L160.78098958333334,41.234172433614724L161.74375,32.09253191136989L162.70651041666667,30.345007823232343L163.66927083333334,31.489705234083516L164.63203124999998,35.17005805570376L165.59479166666668,31.355789383087103L166.55755208333332,31.764426578253424L167.5203125,34.21973220305491L168.48307291666669,46.11980135650827L169.44583333333333,48.30446696995878L170.40859375,53.73305636501591L171.3713541666667,54.925495510942L172.33411458333333,48.635245320741134L173.296875,40.13232504415016L174.25963541666667,36.39824012596811L175.22239583333334,32.27014471556037L176.18515625,32.793016743542154L177.14791666666665,29.502664443247205L178.11067708333334,27.005478099137378" style="fill: none;" fill="none"></path></g><g><path stroke="rgb(255, 112, 67)" stroke-width="2px" d="M159.81822916666667,160.3701009353002L160.78098958333334,160.43021774540344L161.74375,160.27973527101432L162.70651041666667,160.14938535753126L163.66927083333334,159.79386296098278L164.63203124999998,159.6844397433505L165.59479166666668,159.83739862654403L166.55755208333332,160.0470257437988L167.5203125,159.95299817290106L168.48307291666669,156.58181270916864L169.44583333333333,149.35012614246324L170.40859375,150.73782984254024L171.3713541666667,153.45508174342837L172.33411458333333,156.11858490504036L173.296875,158.29119396636554L174.25963541666667,159.97349397129904L175.22239583333334,161.258882176043L176.18515625,162.19759637398369L177.14791666666665,162.81314323687562L178.11067708333334,163.12076145775572" style="fill: none;" fill="none"></path></g><g><path stroke="rgb(187, 187, 187)" stroke-width="2px" d="M140.56302083333335,40.332570473353066L141.52578125,41.509337524573034L142.48854166666666,38.117322998792936L143.45130208333333,35.11174140242386L144.4140625,42.40158913217153L145.37682291666667,36.35703220453965L146.33958333333334,40.25292534863118L147.30234375,42.21527500568081L148.26510416666665,33.88152186239068L149.22786458333334,41.429376620064524L150.190625,48.65129182343114L151.15338541666665,47.74268509907643L152.11614583333332,47.81807248396107L153.07890625000002,44.670872998566985L154.04166666666666,43.76828395193927L155.00442708333333,39.73423618013473L155.96718750000002,36.11817197883282L156.92994791666666,32.467753316823966L157.89270833333333,32.74156352984989L158.85546875,35.818703430891645" style="fill: none;" fill="none"></path></g><g><path stroke="rgb(0, 153, 136)" stroke-width="2px" d="M140.56302083333335,156.7236030101776L141.52578125,156.77841367200017L142.48854166666666,157.12968765574246L143.45130208333333,157.39264647567683L144.4140625,157.49766965034988L145.37682291666667,157.5667568531742L146.33958333333334,157.45369862487576L147.30234375,157.51011394632067L148.26510416666665,156.18051580211156L149.22786458333334,149.00390519459094L150.190625,147.04751287882027L151.15338541666665,149.75978579009637L152.11614583333332,152.67270362683396L153.07890625000002,155.0976550731532L154.04166666666666,156.9517703143928L155.00442708333333,158.28639068777275L155.96718750000002,159.26473394106213L156.92994791666666,159.5880171664856L157.89270833333333,159.86239146258566L158.85546875,160.0540917533166" style="fill: none;" fill="none"></path></g><g><path stroke="rgb(238, 51, 119)" stroke-width="2px" d="M121.3078125,34.13817187150318L122.27057291666667,51.505940655867256L123.23333333333333,52.990440608692836L124.19609375,51.87009850188214L125.15885416666667,50.34149314914347L126.12161458333333,51.863453523354245L127.084375,50.29728403939197L128.04713541666666,52.666959077088165L129.00989583333333,49.94213740119956L129.97265625,48.7876718508243L130.93541666666667,41.297869381488994L131.89817708333334,39.89075035827586L132.8609375,38.69929116540244L133.82369791666667,39.87880108103762L134.78645833333334,34.09593173921262L135.74921874999998,37.85896906262659L136.71197916666665,38.67697659511766L137.67473958333335,39.88801331214058L138.6375,44.03137308329591L139.60026041666666,45.76424239924551" style="fill: none;" fill="none"></path></g><g><path stroke="rgb(51, 187, 238)" stroke-width="2px" d="M121.3078125,151.18734409411746L122.27057291666667,148.8842577797671L123.23333333333333,144.50678450416547L124.19609375,143.16134618503938L125.15885416666667,145.29849211702378L126.12161458333333,148.00209299820273L127.084375,150.3668888223895L128.04713541666666,152.04082341203758L129.00989583333333,153.04901453193398L129.97265625,154.2197838868896L130.93541666666667,154.73143477598384L131.89817708333334,155.31987079922166L132.8609375,155.86577336938967L133.82369791666667,155.8488079535171L134.78645833333334,155.76598021880662L135.74921874999998,154.3083355583809L136.71197916666665,153.8412062641331L137.67473958333335,153.84996202996805L138.6375,154.08859328642293L139.60026041666666,154.87059696339287" style="fill: none;" fill="none"></path></g><g><path stroke="rgb(187, 187, 187)" stroke-width="2px" d="M102.05260416666667,63.093797763188675L103.01536458333334,62.41514561076958L103.97812499999999,56.09058303086936L104.94088541666667,54.93506033119618L105.90364583333333,50.098126436200886L106.86640625,47.851189389195326L107.82916666666667,45.75193006948259L108.79192708333333,50.257499352216904L109.7546875,50.70457299345262L110.71744791666667,50.79936241693726L111.68020833333333,54.36051338971095L112.64296875000001,54.903995503684165L113.60572916666666,53.64738766615264L114.56848958333333,52.21360484864369L115.53125,53.06257826377676L116.49401041666667,47.78864911359687L117.45677083333334,44.769100316432436L118.41953124999999,37.35105801390842L119.38229166666666,40.62889877545815L120.34505208333334,38.606971071468486" style="fill: none;" fill="none"></path></g><g><path stroke="rgb(0, 153, 136)" stroke-width="2px" d="M102.05260416666667,142.73367583751678L103.01536458333334,145.254607287546L103.97812499999999,146.07525838678387L104.94088541666667,147.17106723628356L105.90364583333333,147.92814285221434L106.86640625,148.67119321375526L107.82916666666667,149.3115335757814L108.79192708333333,149.1077871993686L109.7546875,149.8216171560289L110.71744791666667,150.6287695209079L111.68020833333333,148.3182211632676L112.64296875000001,145.5985013327205L113.60572916666666,146.91440491088574L114.56848958333333,148.86625433483L115.53125,150.64572858697392L116.49401041666667,152.18280842966428L117.45677083333334,153.45704150410808L118.41953124999999,154.35311625621867L119.38229166666666,154.8632793375034L120.34505208333334,155.1451101078763" style="fill: none;" fill="none"></path></g><g><path stroke="rgb(238, 51, 119)" stroke-width="2px" d="M82.79739583333334,75.84061582883199L83.76015625,72.86534840861955L84.72291666666666,67.56837458026652L85.68567708333335,68.06135187546414L86.6484375,67.13640732012938L87.61119791666667,67.23657758844465L88.57395833333332,68.2921963206494L89.53671875,65.25393177176461L90.49947916666667,62.14779251589199L91.46223958333333,60.718388292023775L92.425,59.88033066603569L93.38776041666667,58.243699951110436L94.35052083333333,58.97514608093839L95.31328125,55.49348195923509L96.27604166666666,55.875632520988326L97.23880208333334,54.62275868653243L98.20156250000001,55.13958797672584L99.16432291666666,56.29959752844518L100.12708333333333,48.62815647989517L101.08984375,52.243674162904085" style="fill: none;" fill="none"></path></g><g><path stroke="rgb(51, 187, 238)" stroke-width="2px" d="M82.79739583333334,127.19700405995049L83.76015625,130.84041756888232L84.72291666666666,131.00683534631924L85.68567708333335,131.3552456119043L86.6484375,132.1209424943001L87.61119791666667,134.2406949369291L88.57395833333332,136.05500545395967L89.53671875,137.81196069561932L90.49947916666667,139.3508197162739L91.46223958333333,140.57329878313075L92.425,141.55527125617385L93.38776041666667,141.05455661671076L94.35052083333333,138.56073279966867L95.31328125,139.39020856419296L96.27604166666666,141.05974493716337L97.23880208333334,143.1641419342156L98.20156250000001,144.5206441781643L99.16432291666666,145.611524207091L100.12708333333333,145.65731813770975L101.08984375,143.97282491656597" style="fill: none;" fill="none"></path></g><g><path stroke="rgb(204, 51, 17)" stroke-width="2px" d="M63.5421875,20.218625068664558L64.50494791666667,9.556589548786478L65.46770833333333,15.238444063128242L66.43046875,15.827846139231145L67.39322916666667,16.554670350821304L68.35598958333333,16.6552815249145L69.31875,14.455383766476865L70.28151041666668,17.09960274107393L71.24427083333333,16.058946343057947L72.20703125,20.43485810830749L73.16979166666667,18.84605433171436L74.13255208333332,13.571988812529051L75.0953125,12.04549080760856L76.05807291666666,15.57961875153186L77.02083333333333,6.754571394249075L77.98359375000001,8.528103042773706L78.94635416666667,12.412826856949891L79.90911458333333,4.673689111745714L80.871875,4.57963110334927L81.83463541666667,8.632011763423721" style="fill: none;" fill="none"></path></g><g><path stroke="rgb(0, 119, 187)" stroke-width="2px" d="M63.5421875,38.248061935106925L64.50494791666667,50.90115038057168L65.46770833333333,57.734011411666884L66.43046875,62.09287178355688L67.39322916666667,65.62625710083988L68.35598958333333,68.48861708018009L69.31875,70.79382472771817L70.28151041666668,71.94922475623821L71.24427083333333,74.16458269053665L72.20703125,75.81484030098976L73.16979166666667,76.8678055287033L74.13255208333332,78.19677817563783L75.0953125,79.49593445602838L76.05807291666666,80.55297251447148L77.02083333333333,81.70984038240726L77.98359375000001,81.75368414522337L78.94635416666667,82.4672991331305L79.90911458333333,83.65808951511035L80.871875,85.37446189769172L81.83463541666667,86.79676389657217" style="fill: none;" fill="none"></path></g><g><path stroke="rgb(255, 112, 67)" stroke-width="2px" d="M51.989062499999996,81.88419600327809L52.951822916666664,77.68051038185754L53.91458333333333,73.99774227012583L54.87734375,72.62952890977556L55.84010416666666,74.00615574928612L56.80286458333333,73.32455766132195L57.765625,71.41211020796536L58.72838541666667,69.71287948656784L59.69114583333333,68.73839862706627L60.65390625,69.63803990088117L61.61666666666667,64.94703111384358L62.579427083333336,66.9452956745683" style="fill: none;" fill="none"></path></g><g><path stroke="rgb(187, 187, 187)" stroke-width="2px" d="M51.989062499999996,108.34651172161102L52.951822916666664,111.68202576537928L53.91458333333333,114.15346937317425L54.87734375,116.30969891251594L55.84010416666666,118.30067290459797L56.80286458333333,119.10458608448099L57.765625,121.30219624117696L58.72838541666667,123.36318640503023L59.69114583333333,124.06729093070163L60.65390625,124.03157147843054L61.61666666666667,125.20135295496902L62.579427083333336,126.49714804276611" style="fill: none;" fill="none"></path></g><g><path stroke="rgb(51, 187, 238)" stroke-width="2px" d="M38.510416666666664,64.27164912223816L39.47317708333333,64.90742715696493L40.4359375,64.84136467077296L41.39869791666667,69.98862034988169L42.36145833333333,72.24915068802558L43.32421875,73.29265802975968L44.28697916666666,73.66916096309797L45.24973958333334,74.8295453941552L46.2125,72.5321801799946L47.17526041666667,75.51382572762822L48.13802083333333,76.10225936568423L49.100781250000004,75.13812873925049L50.063541666666666,73.87224836241144L51.026302083333334,67.44014028469319" style="fill: none;" fill="none"></path></g><g><path stroke="rgb(204, 51, 17)" stroke-width="2px" d="M38.510416666666664,75.3740821282069L39.47317708333333,78.03756708900134L40.4359375,81.62264731871026L41.39869791666667,84.39007888968085L42.36145833333333,87.08941626570827L43.32421875,89.0097432769768L44.28697916666666,90.82476293460786L45.24973958333334,92.93371569640374L46.2125,94.50995787230048L47.17526041666667,96.40016823544737L48.13802083333333,97.59640845462673L49.100781250000004,99.61000580919692L50.063541666666666,101.69385661919766L51.026302083333334,102.5520203261302" style="fill: none;" fill="none"></path></g><g><path stroke="rgb(255, 112, 67)" stroke-width="2px" d="M23.10625,-12.997197456142562L24.069010416666664,0.38722895987456707L25.031770833333333,7.612443003189862L25.994531249999998,17.787874522649727L26.957291666666666,26.28050685546547L27.92005208333333,32.72954855792831L28.8828125,38.12308955760852L29.845572916666665,45.333657262424424L30.808333333333334,49.73551104354864L31.77109375,55.135742043331014L32.73385416666667,55.98161312226314L33.696614583333336,58.0774640024626L34.659375,59.422724760511215L35.622135416666666,63.18455284375948L36.584895833333334,65.66457752222246L37.54765625,65.78206796162918" style="fill: none;" fill="none"></path></g><g><path stroke="rgb(187, 187, 187)" stroke-width="2px" d="M24.069010416666664,-10.263744161743999L25.031770833333333,5.939271757660208L25.994531249999998,18.945155514439666L26.957291666666666,29.140909701394648L27.92005208333333,37.86187232672526L28.8828125,45.40746531345924L29.845572916666665,51.9448000917787L30.808333333333334,57.691326806222506L31.77109375,63.29173014656874L32.73385416666667,67.57634007764095L33.696614583333336,71.87110978487765L34.659375,76.37639955884354L35.622135416666666,80.07250126502858L36.584895833333334,83.26984435652504L37.54765625,87.00658912412499" style="fill: none;" fill="none"></path></g></g></g></g><g opacity="0.2"><g><g><g><path stroke="rgb(0, 153, 136)" stroke-width="2px" d="M236.83906249999998,38.48397215207417L237.80182291666668,33.924791812896736L238.76458333333332,26.391724348068237L239.72734375,21.988344391187024L240.69010416666669,28.337171872456867L241.65286458333333,29.68564053376515L242.615625,41.17885808149975L243.5783854166667,5.279887517293292L244.54114583333333,24.86396392186482L245.50390625,19.29705719153087L246.46666666666667,22.720726927121472L247.42942708333334,20.809238751729335L248.3921875,21.791105866432197L249.35494791666665,35.962516864140824L250.31770833333334,69.45117076237997L251.28046875,61.53199593226115L252.24322916666665,54.56409315268198L253.20598958333335,46.191923816998795L254.16875,42.64548699061076L255.13151041666666,30.449931025505073L256.0942708333333,34.61163341999053L257.05703125,30.38629094759624L258.01979166666666,27.248843312263496L258.9825520833333,25.041286349296563L259.9453125,23.794250289599095L260.90807291666664,19.68788862228393L261.87083333333334,19.679929216702778L262.83359375000003,24.951001604398083L263.7963541666667,13.781400124231983L264.7591145833333,26.813561121622715L265.721875,16.1795022090276L266.68463541666665,39.03341730435689L267.64739583333335,28.288196325302124L268.61015625,36.26883089542388L269.5729166666667,55.35267213980357L270.5356770833333,24.56544518470765L271.49843749999997,17.26574420928955" style="fill: none;" fill="none"></path></g><g><path stroke="rgb(238, 51, 119)" stroke-width="2px" d="M236.83906249999998,163.99791359901428L237.80182291666668,159.72799435257912L238.76458333333332,160.50340046485266L239.72734375,163.38567237059277L240.69010416666669,163.2304229338964L241.65286458333333,164.1258765757084L242.615625,164.35145363211632L243.5783854166667,165.86111197868982L244.54114583333333,166.35398849844933L245.50390625,166.43742452065152L246.46666666666667,167.41255720456442L247.42942708333334,167.62523099780083L248.3921875,167.790740331014L249.35494791666665,166.51796514789262L250.31770833333334,97.71914621194203L251.28046875,142.97103961308795L252.24322916666665,153.63219156861305L253.20598958333335,158.37326308091482L254.16875,161.38864696025848L255.13151041666666,163.57076078653336L256.0942708333333,165.0054993232091L257.05703125,165.63362712661424L258.01979166666666,166.26797065138817L258.9825520833333,167.0642658074697L259.9453125,167.49469498793286L260.90807291666664,168.01670422156653L261.87083333333334,167.96727443734804L262.83359375000003,166.19965339700383L263.7963541666667,167.01956301927567L264.7591145833333,164.9565794567267L265.721875,162.6510479549567L266.68463541666665,163.72075572609901L267.64739583333335,162.0068577428659L268.61015625,162.86237368981043L269.5729166666667,162.34031170606613L270.5356770833333,164.05245135227838L271.49843749999997,166.34658296902975" style="fill: none;" fill="none"></path></g><g><path stroke="rgb(51, 187, 238)" stroke-width="2px" d="M179.0734375,28.96170973777771L180.03619791666665,24.492005308469135L180.99895833333335,24.428986509641003L181.96171875,35.69562474886576L182.92447916666666,33.59908918539684L183.88723958333335,33.109556436538696L184.85,42.168344656626395L185.81276041666666,37.46669212977092L186.77552083333333,41.68605625629424L187.73828125,18.745595812797546L188.70104166666667,41.255427797635384L189.6638020833333,35.055109461148575L190.6265625,30.68911174933115L191.58932291666667,36.94100797176361L192.55208333333331,39.01926855246227L193.51484375,20.75627764066061L194.47760416666668,35.30146420001984L195.44036458333332,65.48248688379924L196.40312500000002,55.84769090016682L197.36588541666666,53.5862116018931L198.32864583333333,43.401900132497154L199.29140625,45.17974297205606L200.25416666666666,40.02605716387432L201.21692708333333,29.002690712610875L202.1796875,30.01172999540965L203.14244791666667,30.63292702039082L204.10520833333334,32.42266794045766L205.06796874999998,24.929655392964687L206.03072916666667,22.933063705762233L206.99348958333334,29.783075849215184L207.95624999999998,33.93856545289356L208.91901041666668,29.262350201606743L209.88177083333335,31.16918464501698L210.84453125,37.145748734474175L211.80729166666666,27.12948739528656L212.77005208333335,35.42179306348164L213.7328125,35.71835418542225L214.69557291666666,33.97516230742137L215.65833333333333,38.23907097180683L216.62109375,36.97104036808013L217.58385416666667,38.57762118180592L218.54661458333334,41.3916168610255L219.509375,30.45916815598805L220.47213541666665,29.54738835493723L221.43489583333334,32.5814574956894L222.39765625,31.617091695467625L223.36041666666665,28.528748552004505L224.32317708333332,35.041347543398544L225.28593750000002,31.761415998140965L226.24869791666666,38.40055664380392L227.21145833333333,29.97479319572448L228.17421875000002,25.752815008163452L229.13697916666666,17.946115136146545L230.09973958333333,25.85949917634328L231.0625,20.425042112668347L232.02526041666667,15.492789546648664L232.98802083333334,19.708379109700513L233.95078125,28.70147585868836L234.91354166666667,26.377938985824592L235.87630208333334,28.75737925370534" style="fill: none;" fill="none"></path></g><g><path stroke="rgb(204, 51, 17)" stroke-width="2px" d="M179.0734375,163.4974674383799L180.03619791666665,163.47393502791724L180.99895833333335,163.1777871151765L181.96171875,161.85844530661902L182.92447916666666,161.429065267245L183.88723958333335,161.00816041231155L184.85,160.86652050415674L185.81276041666666,161.04252417882284L186.77552083333333,156.42770126461983L187.73828125,159.33497379223505L188.70104166666667,161.15416392683983L189.6638020833333,160.47444944580394L190.6265625,162.07301810383797L191.58932291666667,162.02333629131317L192.55208333333331,162.32270782192546L193.51484375,162.81861454248428L194.47760416666668,163.0528543392817L195.44036458333332,137.7720883488655L196.40312500000002,137.93468763430914L197.36588541666666,155.05041052897772L198.32864583333333,159.49425568183264L199.29140625,160.74770967165628L200.25416666666666,162.5615456700325L201.21692708333333,163.37454209725064L202.1796875,163.2650826871395L203.14244791666667,164.25338238477707L204.10520833333334,164.93955875436467L205.06796874999998,165.30785709619522L206.03072916666667,165.57142009337744L206.99348958333334,165.85316722591716L207.95624999999998,166.11689726511636L208.91901041666668,165.88611553112665L209.88177083333335,165.205240547657L210.84453125,165.26499763131142L211.80729166666666,164.842689037323L212.77005208333335,164.09163882335028L213.7328125,161.25014275312424L214.69557291666666,162.13096116979915L215.65833333333333,161.78044547637305L216.62109375,161.95767412583035L217.58385416666667,163.59299202760062L218.54661458333334,161.81330879529318L219.509375,163.7874904771646L220.47213541666665,165.02974386016527L221.43489583333334,165.45615817109743L222.39765625,163.2131121059259L223.36041666666665,163.9347805082798L224.32317708333332,165.14078870415688L225.28593750000002,165.70345068971315L226.24869791666666,165.81002056598663L227.21145833333333,166.40434727072716L228.17421875000002,165.9191283086936L229.13697916666666,166.01059993108112L230.09973958333333,166.04740778605142L231.0625,165.68821762998897L232.02526041666667,165.8393261830012L232.98802083333334,164.9412467579047L233.95078125,162.13576729098955L234.91354166666667,162.4481006960074L235.87630208333334,163.8340043524901" style="fill: none;" fill="none"></path></g><g><path stroke="rgb(0, 119, 187)" stroke-width="2px" d="M159.81822916666667,42.04454600811004L160.78098958333334,40.747948288917534L161.74375,23.316557010014858L162.70651041666667,28.289919495582588L163.66927083333334,32.984222173690796L164.63203124999998,40.26131093502045L165.59479166666668,25.901324152946465L166.55755208333332,32.36022353172303L167.5203125,37.8408310810725L168.48307291666669,63.79001716772715L169.44583333333333,51.56165063381195L170.40859375,61.84639831384023L171.3713541666667,56.71026070912678L172.33411458333333,39.21219329039256L173.296875,27.38793949286143L174.25963541666667,30.79974631468456L175.22239583333334,26.079748471577954L176.18515625,33.57719202836355L177.14791666666665,24.56763724486034L178.11067708333334,23.259926835695904" style="fill: none;" fill="none"></path></g><g><path stroke="rgb(255, 112, 67)" stroke-width="2px" d="M159.81822916666667,160.3701009353002L160.78098958333334,160.4662878314654L161.74375,160.13527209560075L162.70651041666667,159.9960938592752L163.66927083333334,159.329692920049L164.63203124999998,159.53306804100674L165.59479166666668,160.05613227685294L166.55755208333332,160.35266409317651L167.5203125,159.81432576974234L168.48307291666669,151.57599518696466L169.44583333333333,138.56818715731302L170.40859375,152.8118335704009L171.3713541666667,157.52208729585013L172.33411458333333,160.10862156748772L173.296875,161.54755373795828L174.25963541666667,162.4957574903965L175.22239583333334,163.18642054994902L176.18515625,163.6054293314616L177.14791666666665,163.73636975884438L178.11067708333334,163.58216067155203" style="fill: none;" fill="none"></path></g><g><path stroke="rgb(187, 187, 187)" stroke-width="2px" d="M140.56302083333335,40.332570473353066L141.52578125,42.215397755304984L142.48854166666666,34.86098905404408L143.45130208333333,31.5771774450938L144.4140625,51.91921432813008L145.37682291666667,27.99523393313091L146.33958333333334,45.82411487897236L147.30234375,45.076399644215904L148.26510416666665,21.59085472424825L149.22786458333334,52.63706127802531L150.190625,59.418662389119454L151.15338541666665,46.384719610214226L152.11614583333332,47.9309074083964L153.07890625000002,39.95623946189881L154.04166666666666,42.415461341540016L155.00442708333333,33.686009645462036L155.96718750000002,30.695605874061584L156.92994791666666,26.993052164713543L157.89270833333333,33.152237137158714L158.85546875,40.43413201967876" style="fill: none;" fill="none"></path></g><g><path stroke="rgb(0, 153, 136)" stroke-width="2px" d="M140.56302083333335,156.7236030101776L141.52578125,156.8113000690937L142.48854166666666,157.4669106801351L143.45130208333333,157.7018860479196L144.4140625,157.63478790720305L145.37682291666667,157.66232932607332L146.33958333333334,157.29202354947725L147.30234375,157.59236802657443L148.26510416666665,154.21961680054665L149.22786458333334,138.34747483332953L150.190625,144.1306687394778L151.15338541666665,153.81343508760133L152.11614583333332,157.0325691998005L153.07890625000002,158.7303315103054L154.04166666666666,159.730763733387L155.00442708333333,160.28737997015318L155.96718750000002,160.7318348189195L156.92994791666666,160.07285992304486L157.89270833333333,160.2739111085733L158.85546875,160.34162466724712" style="fill: none;" fill="none"></path></g><g><path stroke="rgb(238, 51, 119)" stroke-width="2px" d="M121.3078125,34.13817187150318L122.27057291666667,61.9266019264857L123.23333333333333,54.41556056340535L124.19609375,50.55257618427277L125.15885416666667,48.34574600060781L126.12161458333333,53.96887262662251L127.084375,48.05763661861419L128.04713541666666,56.12196803092956L129.00989583333333,45.9235546986262L129.97265625,47.073425054550164L130.93541666666667,30.13109763463338L131.89817708333334,37.7877293030421L132.8609375,36.915992697079965L133.82369791666667,41.64575517177581L134.78645833333334,25.428425272305805L135.74921874999998,43.50087106227874L136.71197916666665,39.90364174048106L137.67473958333335,41.704260905583695L138.6375,50.245781540870674L139.60026041666666,48.36338798205058" style="fill: none;" fill="none"></path></g><g><path stroke="rgb(51, 187, 238)" stroke-width="2px" d="M121.3078125,151.18734409411746L122.27057291666667,147.50240599115688L123.23333333333333,140.30441015958786L124.19609375,141.57911072174707L125.15885416666667,148.08874984582263L126.12161458333333,151.74214631319046L127.084375,153.7485846877098L128.04713541666666,154.48143611351648L129.00989583333333,154.53590060273805L129.97265625,155.95823993285498L130.93541666666667,155.49427047371864L131.89817708333334,156.1993225912253L132.8609375,156.68284475803375L133.82369791666667,155.82339306672412L134.78645833333334,155.6418359776338L135.74921874999998,152.12289661169052L136.71197916666665,153.14070999622345L137.67473958333335,153.8630934556325L138.6375,154.44650381803513L139.60026041666666,156.04353100061417" style="fill: none;" fill="none"></path></g><g><path stroke="rgb(187, 187, 187)" stroke-width="2px" d="M102.05260416666667,63.093797763188675L103.01536458333334,62.007954319318124L103.97812499999999,50.019002954165146L104.94088541666667,53.5761656363805L105.90364583333333,43.78302554289501L106.86640625,44.7428665558497L107.82916666666667,42.74995565414429L108.79192708333333,56.826662619908646L109.7546875,51.36391977469127L110.71744791666667,50.940113663673394L111.68020833333333,59.66994047164916L112.64296875000001,55.71626106897989L113.60572916666666,51.76657895247141L114.56848958333333,50.06573955217998L115.53125,54.33504045009613L116.49401041666667,39.88147497177123L117.45677083333334,40.24105489253998L118.41953124999999,26.2258780002594L119.38229166666666,45.545160571734115L120.34505208333334,35.57426432768505" style="fill: none;" fill="none"></path></g><g><path stroke="rgb(0, 153, 136)" stroke-width="2px" d="M102.05260416666667,142.73367583751678L103.01536458333334,146.76716615756354L103.97812499999999,146.86308344205221L104.94088541666667,148.45973844329518L105.90364583333333,148.91658077637356L106.86640625,149.69909936189651L107.82916666666667,150.22723053892454L108.79192708333333,148.81072302659354L109.7546875,150.8743776877721L110.71744791666667,151.82729671398798L111.68020833333333,144.87335513035455L112.64296875000001,141.53372218211493L113.60572916666666,148.88396362463632L114.56848958333333,151.79020459453264L115.53125,153.31284826000532L116.49401041666667,154.48734412590662L117.45677083333334,155.3678519030412L118.41953124999999,155.69700087110203L119.38229166666666,155.62844624121985L120.34505208333334,155.5678305029869" style="fill: none;" fill="none"></path></g><g><path stroke="rgb(238, 51, 119)" stroke-width="2px" d="M82.79739583333334,75.84061582883199L83.76015625,71.0801879564921L84.72291666666666,62.483279705047615L85.68567708333335,68.64109317461649L86.6484375,65.92879970868428L87.61119791666667,67.37514913082123L88.57395833333332,69.80174799760184L89.53671875,60.82411289215087L90.49947916666667,57.566840449968964L91.46223958333333,58.59588960806528L92.425,58.63084534804026L93.38776041666667,55.79766035079955L94.35052083333333,60.06992697715759L95.31328125,50.27780671914417L96.27604166666666,56.44840915997822L97.23880208333334,52.744331558545426L98.20156250000001,55.91461320718129L99.16432291666666,58.03931732972463L100.12708333333333,37.12216357390087L101.08984375,57.66662021478016" style="fill: none;" fill="none"></path></g><g><path stroke="rgb(51, 187, 238)" stroke-width="2px" d="M82.79739583333334,127.19700405995049L83.76015625,133.0264656742414L84.72291666666666,131.1665964126587L85.68567708333335,131.76497608423233L86.6484375,133.120636343956L87.61119791666667,137.17307567596436L88.57395833333332,138.64949852228165L89.53671875,140.37361830472946L90.49947916666667,141.62033786376318L91.46223958333333,142.38853772481283L92.425,143.01932354768118L93.38776041666667,140.30620952447254L94.35052083333333,134.82813984155655L95.31328125,140.6327971816063L96.27604166666666,143.56208701928458L97.23880208333334,146.31925324598947L98.20156250000001,146.55482351779938L99.16432291666666,147.24756727615994L100.12708333333333,145.7260020573934L101.08984375,141.44623905420303" style="fill: none;" fill="none"></path></g><g><path stroke="rgb(204, 51, 17)" stroke-width="2px" d="M63.5421875,20.218625068664558L64.50494791666667,3.1593682368596436L65.46770833333333,20.693024396896362L66.43046875,16.520982980728142L67.39322916666667,17.50361204147338L68.35598958333333,16.79446299870808L69.31875,11.309494773546858L70.28151041666668,20.954899390538532L71.24427083333333,14.524180293083184L72.20703125,26.932577093442287L73.16979166666667,16.477259000142414L74.13255208333332,5.689591765403741L75.0953125,9.760728081067407L76.05807291666666,20.87388694286347L77.02083333333333,-6.472626129786156L77.98359375000001,11.187149683634448L78.94635416666667,18.238268693288166L79.90911458333333,-6.9330525398254395L80.871875,4.438558419545496L81.83463541666667,14.710212349891663" style="fill: none;" fill="none"></path></g><g><path stroke="rgb(0, 119, 187)" stroke-width="2px" d="M63.5421875,38.248061935106925L64.50494791666667,58.49300344785053L65.46770833333333,64.29355800151825L66.43046875,67.21889158089957L67.39322916666667,70.2394449710846L68.35598958333333,72.44829138120015L69.31875,74.09030854701996L70.28151041666668,73.63380908966064L71.24427083333333,77.43180533250172L72.20703125,78.26528052488962L73.16979166666667,78.43770305315654L74.13255208333332,80.18300493558247L75.0953125,81.44042690594992L76.05807291666666,82.13645875453949L77.02083333333333,83.44378232955933L77.98359375000001,81.81941886742909L78.94635416666667,83.53741963704427L79.90911458333333,85.44397274653117L80.871875,87.94875899950664L81.83463541666667,88.93008689085642" style="fill: none;" fill="none"></path></g><g><path stroke="rgb(255, 112, 67)" stroke-width="2px" d="M51.989062499999996,81.88419600327809L52.951822916666664,75.15829900900522L53.91458333333333,70.46228488286337L54.87734375,71.02050999800365L55.84010416666666,75.80347975095113L56.80286458333333,72.38166213035583L57.765625,68.67727975050607L58.72838541666667,67.23538478215535L59.69114583333333,67.30122864246368L60.65390625,70.97390234470367L61.61666666666667,57.953065037727356L62.579427083333336,69.93181804815927" style="fill: none;" fill="none"></path></g><g><path stroke="rgb(187, 187, 187)" stroke-width="2px" d="M51.989062499999996,108.34651172161102L52.951822916666664,113.68333419164021L53.91458333333333,116.52605523665747L54.87734375,118.84542485078177L55.84010416666666,120.90008854866028L56.80286458333333,120.21668742100395L57.765625,124.44481392701466L58.72838541666667,126.3681298494339L59.69114583333333,125.10570834080379L60.65390625,123.97853225469589L61.61666666666667,126.94541533788046L62.579427083333336,128.43378901481628" style="fill: none;" fill="none"></path></g><g><path stroke="rgb(51, 187, 238)" stroke-width="2px" d="M38.510416666666664,64.27164912223816L39.47317708333333,65.28889397780101L40.4359375,64.77794468402863L41.39869791666667,76.0417930285136L42.36145833333333,75.2004990975062L43.32421875,74.73620434602103L44.28697916666666,74.20756618181865L45.24973958333334,76.5213970343272L46.2125,69.14401272932687L47.17526041666667,79.94122187296549L48.13802083333333,76.97957277297974L49.100781250000004,73.69717955589294L50.063541666666666,71.97756111621857L51.026302083333334,57.80457933743795" style="fill: none;" fill="none"></path></g><g><path stroke="rgb(204, 51, 17)" stroke-width="2px" d="M38.510416666666664,75.3740821282069L39.47317708333333,79.63565806547801L40.4359375,85.06432433923085L41.39869791666667,87.64457841714224L42.36145833333333,90.6136711438497L43.32421875,91.66624685128531L44.28697916666666,93.42027008533476L45.24973958333334,96.00858906904857L46.2125,96.83460891246796L47.17526041666667,99.20691033204396L48.13802083333333,99.37991897265117L49.100781250000004,102.61944393316905L50.063541666666666,104.81282869974771L51.026302083333334,103.83758465449014" style="fill: none;" fill="none"></path></g><g><path stroke="rgb(255, 112, 67)" stroke-width="2px" d="M21.180729166666666,-31.228932936986265L22.14348958333333,0.5138446887334231L23.10625,13.670882781346643L24.069010416666664,18.902709086736042L25.031770833333333,17.9446146885554L25.994531249999998,32.62375136216481L26.957291666666666,38.8054899374644L27.92005208333333,42.30562388896943L28.8828125,46.16448203722635L29.845572916666665,56.110269228617355L30.808333333333334,56.32391889890034L31.77109375,63.22550892829894L32.73385416666667,57.24942545096079L33.696614583333336,61.219762166341134L34.659375,61.44004662831623L35.622135416666666,68.82633984088898L36.584895833333334,69.38423673311868L37.54765625,65.95829288164775" style="fill: none;" fill="none"></path></g><g><path stroke="rgb(187, 187, 187)" stroke-width="2px" d="M22.14348958333333,-14.786324898401892L23.10625,7.454352577527362L24.069010416666664,17.51182933648428L25.031770833333333,29.109843770662952L25.994531249999998,37.907858888308205L26.957291666666666,44.17766670385997L27.92005208333333,50.81148544947306L28.8828125,56.65741682052612L29.845572916666665,61.71522637208302L30.808333333333334,66.2923534711202L31.77109375,71.68136338392894L32.73385416666667,73.99821857611337L33.696614583333336,78.31023534138998L34.659375,83.13242773214975L35.622135416666666,85.61571538448334L36.584895833333334,88.06537191073099L37.54765625,92.61136472225189" style="fill: none;" fill="none"></path></g></g></g></g></g></g><g transform="translate(41, 177)" clip-path="url(#clip_1)"><clipPath id="clip_1"><rect width="288" height="22"></rect></clipPath><g><g><line x1="0" y1="0" x2="0" y2="5" style="visibility: inherit;" fill="rgb(0, 0, 0)" stroke="rgb(204, 204, 204)" stroke-width="1px"></line><line x1="19.255208333333332" y1="0" x2="19.255208333333332" y2="5" style="visibility: inherit;" fill="rgb(0, 0, 0)" stroke="rgb(204, 204, 204)" stroke-width="1px"></line><line x1="38.510416666666664" y1="0" x2="38.510416666666664" y2="5" style="visibility: inherit;" fill="rgb(0, 0, 0)" stroke="rgb(204, 204, 204)" stroke-width="1px"></line><line x1="57.765625" y1="0" x2="57.765625" y2="5" style="visibility: inherit;" fill="rgb(0, 0, 0)" stroke="rgb(204, 204, 204)" stroke-width="1px"></line><line x1="77.02083333333333" y1="0" x2="77.02083333333333" y2="5" style="visibility: inherit;" fill="rgb(0, 0, 0)" stroke="rgb(204, 204, 204)" stroke-width="1px"></line><line x1="96.27604166666666" y1="0" x2="96.27604166666666" y2="5" style="visibility: inherit;" fill="rgb(0, 0, 0)" stroke="rgb(204, 204, 204)" stroke-width="1px"></line><line x1="115.53125" y1="0" x2="115.53125" y2="5" style="visibility: inherit;" fill="rgb(0, 0, 0)" stroke="rgb(204, 204, 204)" stroke-width="1px"></line><line x1="134.78645833333334" y1="0" x2="134.78645833333334" y2="5" style="visibility: inherit;" fill="rgb(0, 0, 0)" stroke="rgb(204, 204, 204)" stroke-width="1px"></line><line x1="154.04166666666666" y1="0" x2="154.04166666666666" y2="5" style="visibility: inherit;" fill="rgb(0, 0, 0)" stroke="rgb(204, 204, 204)" stroke-width="1px"></line><line x1="173.296875" y1="0" x2="173.296875" y2="5" style="visibility: inherit;" fill="rgb(0, 0, 0)" stroke="rgb(204, 204, 204)" stroke-width="1px"></line><line x1="192.55208333333331" y1="0" x2="192.55208333333331" y2="5" style="visibility: inherit;" fill="rgb(0, 0, 0)" stroke="rgb(204, 204, 204)" stroke-width="1px"></line><line x1="211.80729166666666" y1="0" x2="211.80729166666666" y2="5" style="visibility: inherit;" fill="rgb(0, 0, 0)" stroke="rgb(204, 204, 204)" stroke-width="1px"></line><line x1="231.0625" y1="0" x2="231.0625" y2="5" style="visibility: inherit;" fill="rgb(0, 0, 0)" stroke="rgb(204, 204, 204)" stroke-width="1px"></line><line x1="250.31770833333334" y1="0" x2="250.31770833333334" y2="5" style="visibility: inherit;" fill="rgb(0, 0, 0)" stroke="rgb(204, 204, 204)" stroke-width="1px"></line><line x1="269.5729166666667" y1="0" x2="269.5729166666667" y2="5" style="visibility: inherit;" fill="rgb(0, 0, 0)" stroke="rgb(204, 204, 204)" stroke-width="1px"></line><line x1="288.828125" y1="0" x2="288.828125" y2="5" style="visibility: inherit;" fill="rgb(0, 0, 0)" stroke="rgb(204, 204, 204)" stroke-width="1px"></line></g><g transform="translate(0, 8)"><text x="0" y="0" dx="0em" dy="0.95em" style="text-anchor: middle; visibility: hidden; font-family: Roboto, sans-serif; font-size: 12px; font-weight: 200;" fill="rgb(33, 33, 33)" stroke="none" stroke-width="1px">-20</text><text x="19.255208333333332" y="0" dx="0em" dy="0.95em" style="text-anchor: middle; visibility: inherit; font-family: Roboto, sans-serif; font-size: 12px; font-weight: 200;" fill="rgb(33, 33, 33)" stroke="none" stroke-width="1px">0</text><text x="38.510416666666664" y="0" dx="0em" dy="0.95em" style="text-anchor: middle; visibility: hidden; font-family: Roboto, sans-serif; font-size: 12px; font-weight: 200;" fill="rgb(33, 33, 33)" stroke="none" stroke-width="1px">20</text><text x="57.765625" y="0" dx="0em" dy="0.95em" style="text-anchor: middle; visibility: inherit; font-family: Roboto, sans-serif; font-size: 12px; font-weight: 200;" fill="rgb(33, 33, 33)" stroke="none" stroke-width="1px">40</text><text x="77.02083333333333" y="0" dx="0em" dy="0.95em" style="text-anchor: middle; visibility: hidden; font-family: Roboto, sans-serif; font-size: 12px; font-weight: 200;" fill="rgb(33, 33, 33)" stroke="none" stroke-width="1px">60</text><text x="96.27604166666666" y="0" dx="0em" dy="0.95em" style="text-anchor: middle; visibility: inherit; font-family: Roboto, sans-serif; font-size: 12px; font-weight: 200;" fill="rgb(33, 33, 33)" stroke="none" stroke-width="1px">80</text><text x="115.53125" y="0" dx="0em" dy="0.95em" style="text-anchor: middle; visibility: hidden; font-family: Roboto, sans-serif; font-size: 12px; font-weight: 200;" fill="rgb(33, 33, 33)" stroke="none" stroke-width="1px">100</text><text x="134.78645833333334" y="0" dx="0em" dy="0.95em" style="text-anchor: middle; visibility: inherit; font-family: Roboto, sans-serif; font-size: 12px; font-weight: 200;" fill="rgb(33, 33, 33)" stroke="none" stroke-width="1px">120</text><text x="154.04166666666666" y="0" dx="0em" dy="0.95em" style="text-anchor: middle; visibility: hidden; font-family: Roboto, sans-serif; font-size: 12px; font-weight: 200;" fill="rgb(33, 33, 33)" stroke="none" stroke-width="1px">140</text><text x="173.296875" y="0" dx="0em" dy="0.95em" style="text-anchor: middle; visibility: inherit; font-family: Roboto, sans-serif; font-size: 12px; font-weight: 200;" fill="rgb(33, 33, 33)" stroke="none" stroke-width="1px">160</text><text x="192.55208333333331" y="0" dx="0em" dy="0.95em" style="text-anchor: middle; visibility: hidden; font-family: Roboto, sans-serif; font-size: 12px; font-weight: 200;" fill="rgb(33, 33, 33)" stroke="none" stroke-width="1px">180</text><text x="211.80729166666666" y="0" dx="0em" dy="0.95em" style="text-anchor: middle; visibility: inherit; font-family: Roboto, sans-serif; font-size: 12px; font-weight: 200;" fill="rgb(33, 33, 33)" stroke="none" stroke-width="1px">200</text><text x="231.0625" y="0" dx="0em" dy="0.95em" style="text-anchor: middle; visibility: hidden; font-family: Roboto, sans-serif; font-size: 12px; font-weight: 200;" fill="rgb(33, 33, 33)" stroke="none" stroke-width="1px">220</text><text x="250.31770833333334" y="0" dx="0em" dy="0.95em" style="text-anchor: middle; visibility: inherit; font-family: Roboto, sans-serif; font-size: 12px; font-weight: 200;" fill="rgb(33, 33, 33)" stroke="none" stroke-width="1px">240</text><text x="269.5729166666667" y="0" dx="0em" dy="0.95em" style="text-anchor: middle; visibility: hidden; font-family: Roboto, sans-serif; font-size: 12px; font-weight: 200;" fill="rgb(33, 33, 33)" stroke="none" stroke-width="1px">260</text><text x="288.828125" y="0" dx="0em" dy="0.95em" style="text-anchor: middle; visibility: hidden; font-family: Roboto, sans-serif; font-size: 12px; font-weight: 200;" fill="rgb(33, 33, 33)" stroke="none" stroke-width="1px">280</text></g><line x1="0" y1="0" x2="288.828125" y2="0" fill="rgb(0, 0, 0)" stroke="rgb(204, 204, 204)" stroke-width="1px"></line></g></g></g></g></svg>