<svg viewBox="0 0 330 200" xmlns="http://www.w3.org/2000/svg"><g><g><g><g><g><line x1="53.1875" y1="176" x2="48.1875" y2="176" style="visibility: inherit;" fill="rgb(0, 0, 0)" stroke="rgb(204, 204, 204)" stroke-width="1px"></line><line x1="53.1875" y1="160" x2="48.1875" y2="160" style="visibility: inherit;" fill="rgb(0, 0, 0)" stroke="rgb(204, 204, 204)" stroke-width="1px"></line><line x1="53.1875" y1="144" x2="48.1875" y2="144" style="visibility: inherit;" fill="rgb(0, 0, 0)" stroke="rgb(204, 204, 204)" stroke-width="1px"></line><line x1="53.1875" y1="128" x2="48.1875" y2="128" style="visibility: inherit;" fill="rgb(0, 0, 0)" stroke="rgb(204, 204, 204)" stroke-width="1px"></line><line x1="53.1875" y1="112" x2="48.1875" y2="112" style="visibility: inherit;" fill="rgb(0, 0, 0)" stroke="rgb(204, 204, 204)" stroke-width="1px"></line><line x1="53.1875" y1="96" x2="48.1875" y2="96" style="visibility: inherit;" fill="rgb(0, 0, 0)" stroke="rgb(204, 204, 204)" stroke-width="1px"></line><line x1="53.1875" y1="80" x2="48.1875" y2="80" style="visibility: inherit;" fill="rgb(0, 0, 0)" stroke="rgb(204, 204, 204)" stroke-width="1px"></line><line x1="53.1875" y1="64" x2="48.1875" y2="64" style="visibility: inherit;" fill="rgb(0, 0, 0)" stroke="rgb(204, 204, 204)" stroke-width="1px"></line><line x1="53.1875" y1="48.000000000000014" x2="48.1875" y2="48.000000000000014" style="visibility: inherit;" fill="rgb(0, 0, 0)" stroke="rgb(204, 204, 204)" stroke-width="1px"></line><line x1="53.1875" y1="32.000000000000014" x2="48.1875" y2="32.000000000000014" style="visibility: inherit;" fill="rgb(0, 0, 0)" stroke="rgb(204, 204, 204)" stroke-width="1px"></line><line x1="53.1875" y1="16.000000000000025" x2="48.1875" y2="16.000000000000025" style="visibility: inherit;" fill="rgb(0, 0, 0)" stroke="rgb(204, 204, 204)" stroke-width="1px"></line><line x1="53.1875" y1="0" x2="48.1875" y2="0" style="visibility: inherit;" fill="rgb(0, 0, 0)" stroke="rgb(204, 204, 204)" stroke-width="1px"></line></g><g transform="translate(43.1875, 0)"><text x="0" y="176" dx="0em" dy="0.3em" style="text-anchor: end; visibility: hidden; font-family: Roboto, sans-serif; font-size: 12px; font-weight: 200;" fill="rgb(33, 33, 33)" stroke="none" stroke-width="1px">0.2</text><text x="0" y="160" dx="0em" dy="0.3em" style="text-anchor: end; visibility: inherit; font-family: Roboto, sans-serif; font-size: 12px; font-weight: 200;" fill="rgb(33, 33, 33)" stroke="none" stroke-width="1px">0.25</text><text x="0" y="144" dx="0em" dy="0.3em" style="text-anchor: end; visibility: hidden; font-family: Roboto, sans-serif; font-size: 12px; font-weight: 200;" fill="rgb(33, 33, 33)" stroke="none" stroke-width="1px">0.3</text><text x="0" y="128" dx="0em" dy="0.3em" style="text-anchor: end; visibility: inherit; font-family: Roboto, sans-serif; font-size: 12px; font-weight: 200;" fill="rgb(33, 33, 33)" stroke="none" stroke-width="1px">0.35</text><text x="0" y="112" dx="0em" dy="0.3em" style="text-anchor: end; visibility: hidden; font-family: Roboto, sans-serif; font-size: 12px; font-weight: 200;" fill="rgb(33, 33, 33)" stroke="none" stroke-width="1px">0.4</text><text x="0" y="96" dx="0em" dy="0.3em" style="text-anchor: end; visibility: inherit; font-family: Roboto, sans-serif; font-size: 12px; font-weight: 200;" fill="rgb(33, 33, 33)" stroke="none" stroke-width="1px">0.45</text><text x="0" y="80" dx="0em" dy="0.3em" style="text-anchor: end; visibility: hidden; font-family: Roboto, sans-serif; font-size: 12px; font-weight: 200;" fill="rgb(33, 33, 33)" stroke="none" stroke-width="1px">0.5</text><text x="0" y="64" dx="0em" dy="0.3em" style="text-anchor: end; visibility: inherit; font-family: Roboto, sans-serif; font-size: 12px; font-weight: 200;" fill="rgb(33, 33, 33)" stroke="none" stroke-width="1px">0.55</text><text x="0" y="48.000000000000014" dx="0em" dy="0.3em" style="text-anchor: end; visibility: hidden; font-family: Roboto, sans-serif; font-size: 12px; font-weight: 200;" fill="rgb(33, 33, 33)" stroke="none" stroke-width="1px">0.6</text><text x="0" y="32.000000000000014" dx="0em" dy="0.3em" style="text-anchor: end; visibility: inherit; font-family: Roboto, sans-serif; font-size: 12px; font-weight: 200;" fill="rgb(33, 33, 33)" stroke="none" stroke-width="1px">0.65</text><text x="0" y="16.000000000000025" dx="0em" dy="0.3em" style="text-anchor: end; visibility: hidden; font-family: Roboto, sans-serif; font-size: 12px; font-weight: 200;" fill="rgb(33, 33, 33)" stroke="none" stroke-width="1px">0.7</text><text x="0" y="0" dx="0em" dy="0.3em" style="text-anchor: end; visibility: hidden; font-family: Roboto, sans-serif; font-size: 12px; font-weight: 200;" fill="rgb(33, 33, 33)" stroke="none" stroke-width="1px">0.75</text></g><line x1="53.1875" y1="0" x2="53.1875" y2="176" fill="rgb(0, 0, 0)" stroke="rgb(204, 204, 204)" stroke-width="1px"></line></g></g><g transform="translate(53, 0)" clip-path="url(#clip_0)"><clipPath id="clip_0"><rect width="276" height="175"></rect></clipPath><g><g><g><line x1="0" y1="0" x2="0" y2="176" fill="rgb(0, 0, 0)" stroke="rgb(66, 66, 66)" stroke-width="1px" opacity="0.25"></line><line x1="18.454166666666666" y1="0" x2="18.454166666666666" y2="176" fill="rgb(0, 0, 0)" stroke="rgb(66, 66, 66)" stroke-width="1px" opacity="0.25"></line><line x1="36.90833333333333" y1="0" x2="36.90833333333333" y2="176" fill="rgb(0, 0, 0)" stroke="rgb(66, 66, 66)" stroke-width="1px" opacity="0.25"></line><line x1="55.362500000000004" y1="0" x2="55.362500000000004" y2="176" fill="rgb(0, 0, 0)" stroke="rgb(66, 66, 66)" stroke-width="1px" opacity="0.25"></line><line x1="73.81666666666666" y1="0" x2="73.81666666666666" y2="176" fill="rgb(0, 0, 0)" stroke="rgb(66, 66, 66)" stroke-width="1px" opacity="0.25"></line><line x1="92.27083333333333" y1="0" x2="92.27083333333333" y2="176" fill="rgb(0, 0, 0)" stroke="rgb(66, 66, 66)" stroke-width="1px" opacity="0.25"></line><line x1="110.72500000000001" y1="0" x2="110.72500000000001" y2="176" fill="rgb(0, 0, 0)" stroke="rgb(66, 66, 66)" stroke-width="1px" opacity="0.25"></line><line x1="129.17916666666667" y1="0" x2="129.17916666666667" y2="176" fill="rgb(0, 0, 0)" stroke="rgb(66, 66, 66)" stroke-width="1px" opacity="0.25"></line><line x1="147.63333333333333" y1="0" x2="147.63333333333333" y2="176" fill="rgb(0, 0, 0)" stroke="rgb(66, 66, 66)" stroke-width="1px" opacity="0.25"></line><line x1="166.0875" y1="0" x2="166.0875" y2="176" fill="rgb(0, 0, 0)" stroke="rgb(66, 66, 66)" stroke-width="1px" opacity="0.25"></line><line x1="184.54166666666666" y1="0" x2="184.54166666666666" y2="176" fill="rgb(0, 0, 0)" stroke="rgb(66, 66, 66)" stroke-width="1px" opacity="0.25"></line><line x1="202.9958333333333" y1="0" x2="202.9958333333333" y2="176" fill="rgb(0, 0, 0)" stroke="rgb(66, 66, 66)" stroke-width="1px" opacity="0.25"></line><line x1="221.45000000000002" y1="0" x2="221.45000000000002" y2="176" fill="rgb(0, 0, 0)" stroke="rgb(66, 66, 66)" stroke-width="1px" opacity="0.25"></line><line x1="239.90416666666667" y1="0" x2="239.90416666666667" y2="176" fill="rgb(0, 0, 0)" stroke="rgb(66, 66, 66)" stroke-width="1px" opacity="0.25"></line><line x1="258.35833333333335" y1="0" x2="258.35833333333335" y2="176" fill="rgb(0, 0, 0)" stroke="rgb(66, 66, 66)" stroke-width="1px" opacity="0.25"></line><line x1="276.8125" y1="0" x2="276.8125" y2="176" fill="rgb(0, 0, 0)" stroke="rgb(66, 66, 66)" stroke-width="1px" opacity="0.25"></line></g><g><line x1="0" y1="176" x2="276.8125" y2="176" fill="rgb(0, 0, 0)" stroke="rgb(66, 66, 66)" stroke-width="1px" opacity="0.25"></line><line x1="0" y1="160" x2="276.8125" y2="160" fill="rgb(0, 0, 0)" stroke="rgb(66, 66, 66)" stroke-width="1px" opacity="0.25"></line><line x1="0" y1="144" x2="276.8125" y2="144" fill="rgb(0, 0, 0)" stroke="rgb(66, 66, 66)" stroke-width="1px" opacity="0.25"></line><line x1="0" y1="128" x2="276.8125" y2="128" fill="rgb(0, 0, 0)" stroke="rgb(66, 66, 66)" stroke-width="1px" opacity="0.25"></line><line x1="0" y1="112" x2="276.8125" y2="112" fill="rgb(0, 0, 0)" stroke="rgb(66, 66, 66)" stroke-width="1px" opacity="0.25"></line><line x1="0" y1="96" x2="276.8125" y2="96" fill="rgb(0, 0, 0)" stroke="rgb(66, 66, 66)" stroke-width="1px" opacity="0.25"></line><line x1="0" y1="80" x2="276.8125" y2="80" fill="rgb(0, 0, 0)" stroke="rgb(66, 66, 66)" stroke-width="1px" opacity="0.25"></line><line x1="0" y1="64" x2="276.8125" y2="64" fill="rgb(0, 0, 0)" stroke="rgb(66, 66, 66)" stroke-width="1px" opacity="0.25"></line><line x1="0" y1="48.000000000000014" x2="276.8125" y2="48.000000000000014" fill="rgb(0, 0, 0)" stroke="rgb(66, 66, 66)" stroke-width="1px" opacity="0.25"></line><line x1="0" y1="32.000000000000014" x2="276.8125" y2="32.000000000000014" fill="rgb(0, 0, 0)" stroke="rgb(66, 66, 66)" stroke-width="1px" opacity="0.25"></line><line x1="0" y1="16.000000000000025" x2="276.8125" y2="16.000000000000025" fill="rgb(0, 0, 0)" stroke="rgb(66, 66, 66)" stroke-width="1px" opacity="0.25"></line><line x1="0" y1="0" x2="276.8125" y2="0" fill="rgb(0, 0, 0)" stroke="rgb(66, 66, 66)" stroke-width="1px" opacity="0.25"></line></g></g></g><g><g><line x1="0" y1="240.00000000000003" x2="276.8125" y2="240.00000000000003" fill="rgb(0, 0, 0)" stroke="rgb(153, 153, 153)" stroke-width="1.5px"></line></g></g><g><g><line x1="18.454166666666666" y1="0" x2="18.454166666666666" y2="176" fill="rgb(0, 0, 0)" stroke="rgb(153, 153, 153)" stroke-width="1.5px"></line></g></g><g><g><g><g><g><path stroke="rgb(0, 153, 136)" stroke-width="2px" d="M226.98624999999998,134.27355766296387L227.90895833333335,134.84742522239685L228.83166666666668,134.72272074952417L229.75437499999998,134.49084043502808L230.67708333333334,134.08198917846894L231.59979166666668,134.368281985456L232.52249999999998,134.5120481676303L233.44520833333334,134.93113734368143L234.36791666666667,135.20146559103165L235.290625,135.10431597589786L236.21333333333334,134.85126043571154L237.13604166666667,134.35357014530842L238.05875,134.66166633888568L238.9814583333333,135.4777807935765L239.90416666666667,138.86913843831633L240.826875,138.2408691147655L241.74958333333333,136.9657671235041L242.67229166666667,135.89776992969163L243.595,135.3121248061152L244.51770833333333,135.08352201875306L245.4404166666667,134.30660022679476L246.363125,134.1563878159379L247.28583333333333,134.47609305738925L248.20854166666666,134.30157602801313L249.13125,134.11183649582995L250.05395833333333,134.09984571249313L250.97666666666666,133.8452869582172L251.89937500000002,134.16559369731246L252.82208333333332,133.55482932098408L253.74479166666666,134.30961742498175L254.66750000000002,134.72359170741018L255.59020833333332,135.03631111622892L256.5129166666667,136.18937019037435L257.435625,136.145731945738L258.35833333333335,137.30918525067582L259.2810416666667,136.67019437135374L260.20375,136.1754068724357" style="fill: none;" fill="none"></path></g><g><path stroke="rgb(238, 51, 119)" stroke-width="2px" d="M226.98624999999998,16.010513305664084L227.90895833333335,21.622171401977564L228.83166666666668,23.741464420240785L229.75437499999998,21.231771497165475L230.67708333333334,23.776560564325752L231.59979166666668,23.42219351697816L232.52249999999998,22.59149371703279L233.44520833333334,19.933244369860763L234.36791666666667,17.346637457315495L235.290625,15.734361895464273L236.21333333333334,13.56239122228317L237.13604166666667,12.086370194368703L238.05875,11.170968029562891L238.9814583333333,12.75199940622499L239.90416666666667,56.0858087115718L240.826875,61.57634349332199L241.74958333333333,56.4785659542491L242.67229166666667,47.75265504177861L243.595,38.92842195001249L244.51770833333333,32.061735279567124L245.4404166666667,26.07842449954938L246.363125,21.921902334626658L247.28583333333333,17.94210380655345L248.20854166666666,15.110440821999436L249.13125,12.987782506272438L250.05395833333333,11.032198638597922L250.97666666666666,9.791391277462147L251.89937500000002,11.024119886281769L252.82208333333332,11.43634860953633L253.74479166666666,13.668816495199744L254.66750000000002,18.134212852710696L255.59020833333332,19.72573505264579L256.5129166666667,21.270202152702083L257.435625,21.66641054857857L258.35833333333335,22.533820037906178L259.2810416666667,21.01108332783835L260.20375,17.64504108915303" style="fill: none;" fill="none"></path></g><g><path stroke="rgb(51, 187, 238)" stroke-width="2px" d="M171.62375,134.85092163085938L172.54645833333333,134.88176107406616L173.46916666666667,134.34080999724722L174.391875,134.2764373386608L175.31458333333333,134.56374349071282L176.2372916666667,134.72225763615938L177.16,135.38531357910045L178.08270833333333,137.70606569852697L179.00541666666666,137.2711192592696L179.928125,136.6142846446174L180.85083333333333,136.19165450144777L181.77354166666666,135.80043336445388L182.69625000000002,135.59386657087728L183.61895833333332,135.1794700882199L184.54166666666666,134.90207677324483L185.46437500000002,134.9603894066715L186.38708333333332,134.71929204692037L187.30979166666665,139.40438152048966L188.23250000000002,138.37830323413783L189.15520833333335,137.2492841065788L190.07791666666665,135.98830622967222L191.00062499999999,135.155236261564L191.92333333333335,134.2995406388999L192.84604166666665,134.1014481456299L193.76874999999998,134.1251527072121L194.69145833333334,133.89486433330404L195.61416666666668,133.5068057455328L196.53687499999998,133.67121459076267L197.45958333333334,133.6180462702678L198.38229166666667,133.72277633267703L199.305,133.75221667631405L200.22770833333334,134.63695400808643L201.15041666666667,134.53202362664786L202.073125,134.4004428099141L202.9958333333333,134.802905310787L203.91854166666667,134.1992366189664L204.84125,134.70195698303593L205.76395833333333,134.84518770964053L206.68666666666667,134.8214917456046L207.609375,134.282032314708L208.53208333333333,134.0046518226844L209.45479166666667,133.71843440401977L210.3775,133.88135971472454L211.30020833333333,134.39513052618932L212.2229166666667,133.80777075950022L213.145625,133.87909147181787L214.06833333333333,134.13613255644017L214.99104166666666,133.8613830555865L215.91375,133.88957229551045L216.83645833333333,133.65082101402308L217.75916666666666,134.0694560788749L218.68187500000002,134.06269491807686L219.60458333333332,134.24120200333667L220.52729166666666,134.4161392012698L221.45000000000002,134.32984404322275L222.37270833333335,134.34727318618758L223.29541666666665,134.5068891497497L224.21812500000001,134.40585468125607L225.14083333333335,134.26710518546258L226.06354166666665,134.49477238862133" style="fill: none;" fill="none"></path></g><g><path stroke="rgb(204, 51, 17)" stroke-width="2px" d="M171.62375,17.916336059570327L172.54645833333333,17.932751178741476L173.46916666666667,18.306254562066513L174.391875,19.526353233000798L175.31458333333333,20.89717511581432L176.2372916666667,22.077865544246407L177.16,24.458401517811076L178.08270833333333,24.10942604483777L179.00541666666666,28.786409449318818L179.928125,29.065832597800018L180.85083333333333,27.046576528102168L181.77354166666666,26.953833513043413L182.69625000000002,24.7939680041397L183.61895833333332,23.789786083422666L184.54166666666666,22.63351933600569L185.46437500000002,21.70415514284778L186.38708333333332,20.885086378322036L187.30979166666665,35.4054742098233L188.23250000000002,53.070036897582156L189.15520833333335,49.95689092198044L190.07791666666665,42.509119792406075L191.00062499999999,36.35580897533855L191.92333333333335,30.62519244812841L192.84604166666665,27.486215097158485L193.76874999999998,26.37996291269998L194.69145833333334,24.11079553210849L195.61416666666668,21.747808824110784L196.53687499999998,18.876831419599455L197.45958333333334,17.023050988546423L198.38229166666667,15.45110441553333L199.305,13.916254181570618L200.22770833333334,13.783353877759842L201.15041666666667,14.555122837142205L202.073125,14.78933286426916L202.9958333333333,15.621196473584508L203.91854166666667,16.548316038244668L204.84125,21.097492458717234L205.76395833333333,22.321146541785758L206.68666666666667,23.244189391971677L207.609375,22.963031273967346L208.53208333333333,21.063440405923274L209.45479166666667,21.665568211128864L210.3775,20.33464518654695L211.30020833333333,17.98750738740046L212.2229166666667,16.050179603137362L213.145625,18.280254246396503L214.06833333333333,18.772260213871956L214.99104166666666,17.17429057652949L215.91375,15.689271306346908L216.83645833333333,13.97662735898961L217.75916666666666,12.54948196958609L218.68187500000002,12.16611038536384L219.60458333333332,11.860602205338827L220.52729166666666,11.971234980430046L221.45000000000002,13.837205709938873L222.37270833333335,14.058068360045432L223.29541666666665,14.460117200109435L224.21812500000001,18.196593391355215L225.14083333333335,18.94771830287964L226.06354166666665,18.651757812782478" style="fill: none;" fill="none"></path></g><g><path stroke="rgb(0, 119, 187)" stroke-width="2px" d="M153.16958333333335,135.54437637329102L154.09229166666665,134.05089855194092L155.01500000000001,135.05879849803694L155.93770833333335,135.54621342350455L156.86041666666665,135.90098875417718L157.78312499999998,135.9909938549509L158.70583333333335,135.86716128775822L159.62854166666668,135.7976672906038L160.55124999999998,135.7836039115756L161.47395833333334,139.22843393338582L162.39666666666668,138.87304748720757L163.31937499999998,137.20227930116914L164.24208333333334,135.69359222955762L165.16479166666667,134.93467988511495L166.0875,134.76533951582473L167.01020833333334,134.79023337636946L167.93291666666667,134.9398086544665L168.855625,134.522207649304L169.7783333333333,134.5993537656538L170.70104166666667,134.66909585785766" style="fill: none;" fill="none"></path></g><g><path stroke="rgb(255, 112, 67)" stroke-width="2px" d="M153.16958333333335,28.0197334289551L154.09229166666665,27.298099994659438L155.01500000000001,26.695527446513275L155.93770833333335,27.22285789601945L156.86041666666665,28.113289475027358L157.78312499999998,28.508258027241656L158.70583333333335,27.72669168339822L159.62854166666668,26.772267056135288L160.55124999999998,27.345172928433968L161.47395833333334,36.479210007122525L162.39666666666668,51.76316617698562L163.31937499999998,49.974645524112574L164.24208333333334,43.85446422102125L165.16479166666667,37.51221440196735L166.0875,32.18856424931163L167.01020833333334,28.088051390955197L167.93291666666667,24.456151316915438L168.855625,21.88941827203218L169.7783333333333,20.743360484981935L170.70104166666667,20.106759617415314" style="fill: none;" fill="none"></path></g><g><path stroke="rgb(187, 187, 187)" stroke-width="2px" d="M134.71541666666667,134.3055248260498L135.638125,133.00739526748657L136.56083333333333,133.56443716555225L137.48354166666667,133.6545088711907L138.40625,133.91163598986486L139.32895833333333,134.6486202052021L140.25166666666667,134.83889009437078L141.174375,135.26964268497062L142.09708333333333,138.03614692291728L143.0197916666667,138.30273507741836L143.9425,137.47676380122564L144.86520833333333,136.0338817961425L145.78791666666666,135.60211073576977L146.710625,135.16294331819742L147.63333333333333,134.54864903396992L148.55604166666666,134.24135935290002L149.47875000000002,134.3602349033215L150.40145833333332,134.51052723839078L151.32416666666666,134.94372372172944L152.24687500000002,134.72123098116305" style="fill: none;" fill="none"></path></g><g><path stroke="rgb(0, 153, 136)" stroke-width="2px" d="M134.71541666666667,36.49681091308596L135.638125,38.15740823745729L136.56083333333333,36.550679888044094L137.48354166666667,35.38218091515939L138.40625,34.853661965364275L139.32895833333333,34.666423733585226L140.25166666666667,35.1076463226485L141.174375,34.41229888556941L142.09708333333333,36.653539789407546L143.0197916666667,52.39886855194696L143.9425,57.47811132843225L144.86520833333333,52.283825653789805L145.78791666666666,45.64427749017069L146.710625,40.0168764769709L147.63333333333333,35.27087198623191L148.55604166666666,31.962928180235494L149.47875000000002,29.2286399096728L150.40145833333332,29.856370012498854L151.32416666666666,30.08897656246537L152.24687500000002,28.8408616667258" style="fill: none;" fill="none"></path></g><g><path stroke="rgb(238, 51, 119)" stroke-width="2px" d="M116.26124999999999,135.45120239257815L117.18395833333334,136.18113875389102L118.10666666666667,138.93800988489267L119.029375,137.51357604475584L119.95208333333333,136.14974834619508L120.87479166666667,135.0013351709323L121.7975,135.19063630295332L122.72020833333335,135.071355060545L123.64291666666666,134.2869026500778L124.565625,133.77449138571185L125.48833333333333,133.9582287040616L126.41104166666666,134.2119152240225L127.33375000000001,134.0847260890859L128.25645833333334,134.42439895439372L129.17916666666667,135.73716579558075L130.101875,135.37797008642974L131.02458333333334,134.79870548608667L131.94729166666667,135.82739066160238L132.87,134.79232698230695L133.79270833333334,135.22297663188328" style="fill: none;" fill="none"></path></g><g><path stroke="rgb(51, 187, 238)" stroke-width="2px" d="M116.26124999999999,50.1975440979004L117.18395833333334,55.67031145095827L118.10666666666667,62.27270943777904L119.029375,66.1257515234106L119.95208333333333,62.290820929840336L120.87479166666667,56.80454475411027L121.7975,51.93370200455584L122.72020833333335,48.39482617266992L123.64291666666666,46.729247470669726L124.565625,43.82175632534882L125.48833333333333,42.57321498090232L126.41104166666666,41.919336692520844L127.33375000000001,40.32727994208875L128.25645833333334,39.52722294086567L129.17916666666667,39.35594744722126L130.101875,43.02329447348575L131.02458333333334,43.711065757044366L131.94729166666667,43.95920097074617L132.87,43.48458437362543L133.79270833333334,41.717204255469596" style="fill: none;" fill="none"></path></g><g><path stroke="rgb(187, 187, 187)" stroke-width="2px" d="M97.80708333333334,137.22451210021973L98.72979166666667,136.4306616783142L99.6525,136.58367409998058L100.57520833333334,136.6482738536947L101.49791666666665,136.3678960846498L102.420625,136.9169090398528L103.34333333333333,136.993506709451L104.26604166666667,137.275497833901L105.18875,137.6167425744273L106.11145833333335,137.61453445128086L107.03416666666666,140.90138884252602L107.956875,139.2904202971245L108.87958333333333,137.9845453637612L109.80229166666666,136.0508276296923L110.72500000000001,135.51485760986927L111.64770833333333,135.19430310736195L112.57041666666667,135.62638629439138L113.49312499999999,135.7386170700512L114.41583333333334,135.59273944731814L115.33854166666667,135.89423272491007" style="fill: none;" fill="none"></path></g><g><path stroke="rgb(0, 153, 136)" stroke-width="2px" d="M97.80708333333334,70.07305145263673L98.72979166666667,63.98409128189089L99.6525,62.55007529745297L100.57520833333334,61.43819107728847L101.49791666666665,60.281591011698595L102.420625,57.929348453927375L103.34333333333333,56.77920734299326L104.26604166666667,56.744298607761586L105.18875,54.3650934078328L106.11145833333335,52.449805966565435L107.03416666666666,54.97122634824795L107.956875,59.82539456172807L108.87958333333333,57.9492667916777L109.80229166666666,54.66515698099692L110.72500000000001,51.5443690895267L111.64770833333333,48.148312009293946L112.57041666666667,44.97737106446317L113.49312499999999,42.67817521643161L114.41583333333334,41.81668387183774L115.33854166666667,40.93167565867125" style="fill: none;" fill="none"></path></g><g><path stroke="rgb(238, 51, 119)" stroke-width="2px" d="M79.35291666666667,139.05418395996094L80.27562499999999,139.17047262191772L81.19833333333334,140.52356739433444L82.12104166666667,139.76118445396423L83.04375,139.47778163727253L83.96645833333334,139.22744918842704L84.88916666666665,138.2277022036262L85.811875,137.7075478117221L86.73458333333333,137.341242754638L87.65729166666667,136.64708843664658L88.58,136.80743066510277L89.50270833333333,140.2443713588909L90.42541666666666,139.14348744425573L91.34812500000001,138.31613641109192L92.27083333333333,137.08813018288407L93.19354166666666,136.10440341552524L94.11625000000001,137.22253132322527L95.03895833333333,137.53274234607235L95.96166666666667,139.335879245949L96.88437499999999,140.56248700610897" style="fill: none;" fill="none"></path></g><g><path stroke="rgb(51, 187, 238)" stroke-width="2px" d="M79.35291666666667,99.15602684020996L80.27562499999999,94.51739072799683L81.19833333333334,94.8170159787548L82.12104166666667,96.53597126988807L83.04375,94.72412548819653L83.96645833333334,90.93028960499421L84.88916666666665,87.24621528777803L85.811875,83.82364461733253L86.73458333333333,80.20691140621761L87.65729166666667,77.91110727924648L88.58,76.0511576750431L89.50270833333333,76.74770461050521L90.42541666666666,80.18076160629616L91.34812500000001,79.04412783469643L92.27083333333333,75.36236766278074L93.19354166666666,70.99199027847932L94.11625000000001,67.94054863163156L95.03895833333333,65.89037218385084L95.96166666666667,65.20960449552537L96.88437499999999,68.18821138261715" style="fill: none;" fill="none"></path></g><g><path stroke="rgb(204, 51, 17)" stroke-width="2px" d="M60.89875,167.57293224334717L61.82145833333333,167.48426139354706L62.744166666666665,169.74094342212288L63.666875000000005,166.68645103188123L64.58958333333334,166.4243738027516L65.51229166666667,164.13166802308484L66.435,164.10375344184675L67.35770833333333,165.130191905248L68.28041666666667,165.03114029231136L69.203125,163.8053760703051L70.12583333333333,162.92360226109764L71.04854166666667,162.3326632189979L71.97125,161.6936680682469L72.89395833333333,161.24079674252457L73.81666666666666,161.11460456389798L74.73937500000001,160.71155674896414L75.66208333333333,160.9322738386078L76.58479166666667,160.35078626537836L77.50750000000001,159.4635075968223L78.43020833333333,159.34503137875885" style="fill: none;" fill="none"></path></g><g><path stroke="rgb(0, 119, 187)" stroke-width="2px" d="M60.89875,168.44829559326172L61.82145833333333,161.30915522575378L62.744166666666665,157.33783702461085L63.666875000000005,154.43840861320498L64.58958333333334,151.96685972352728L65.51229166666667,150.15504742027224L66.435,148.13032030359125L67.35770833333333,147.55593795276567L68.28041666666667,146.22721114623062L69.203125,144.31223765712272L70.12583333333333,143.12661648242172L71.04854166666667,141.9977420065868L71.97125,140.56553379590486L72.89395833333333,139.23154349239755L73.81666666666666,138.1866472337686L74.73937500000001,137.94549345876553L75.66208333333333,136.9938042975995L76.58479166666667,135.9111002925277L77.50750000000001,133.97774048447081L78.43020833333333,132.46092965398776" style="fill: none;" fill="none"></path></g><g><path stroke="rgb(255, 112, 67)" stroke-width="2px" d="M49.82625,149.50251579284668L50.74895833333333,147.3656952381134L51.67166666666667,146.99151856558663L52.594375,145.58435871320614L53.51708333333333,146.24326323403992L54.439791666666665,145.18358980802668L55.362500000000004,144.53729805814112L56.28520833333334,144.49819219080615L57.20791666666667,144.74148632999965L58.130624999999995,144.74038532374144L59.053333333333335,144.98854122555483L59.97604166666667,144.32833846601645" style="fill: none;" fill="none"></path></g><g><path stroke="rgb(187, 187, 187)" stroke-width="2px" d="M49.82625,132.65280723571777L50.74895833333333,128.87943387031555L51.67166666666667,125.84209734079789L52.594375,122.91710324147171L53.51708333333333,119.62623010485808L54.439791666666665,117.9994731149151L55.362500000000004,114.95597088050295L56.28520833333334,111.81120830210143L57.20791666666667,110.48700771481084L58.130624999999995,110.08695439110792L59.053333333333335,108.11159927462262L59.97604166666667,106.01330527398261" style="fill: none;" fill="none"></path></g><g><path stroke="rgb(51, 187, 238)" stroke-width="2px" d="M36.90833333333333,164.41702365875244L37.831041666666664,162.18493402004242L38.753750000000004,161.5546602132369L39.676458333333336,159.62643269230338L40.59916666666667,157.79199270636238L41.521875,157.01274818815813L42.44458333333333,155.74356930674531L43.36729166666667,154.71483927983044L44.29,155.2521806695486L45.21270833333333,153.65656818008165L46.135416666666664,153.15062051204077L47.058125000000004,152.0046188915599L47.98083333333334,151.34168745237213L48.90354166666667,153.05313402773382" style="fill: none;" fill="none"></path></g><g><path stroke="rgb(204, 51, 17)" stroke-width="2px" d="M36.90833333333333,160.42681694030762L37.831041666666664,158.95650148391724L38.753750000000004,156.67052833401425L39.676458333333336,154.82685765799354L40.59916666666667,152.75644747107333L41.521875,151.02531000571656L42.44458333333333,149.19567414684397L43.36729166666667,147.4255780283957L44.29,145.8124074932944L45.21270833333333,144.13594557230775L46.135416666666664,142.43465414136233L47.058125000000004,140.50128840569084L47.98083333333334,138.93906393814956L48.90354166666667,137.68859980454602" style="fill: none;" fill="none"></path></g><g><path stroke="rgb(255, 112, 67)" stroke-width="2px" d="M26.758541666666666,176.05340765872427L27.681250000000002,174.33329308386905L28.603958333333335,171.9934764814597L29.526666666666667,170.03343835760708L30.449375,168.03218188044357L31.372083333333332,168.2596760260692L32.29479166666667,166.2556953640553L33.2175,164.72396216164793L34.140208333333334,163.42202888617828L35.062916666666666,162.1642361153462L35.985625,161.3528008659851" style="fill: none;" fill="none"></path></g><g><path stroke="rgb(187, 187, 187)" stroke-width="2px" d="M25.835833333333333,178.96591996779281L26.758541666666666,175.97026407864658L27.681250000000002,173.25075321667222L28.603958333333335,170.7381286266015L29.526666666666667,168.36632744315892L30.449375,166.30232247352998L31.372083333333332,164.63355799857513L32.29479166666667,162.83556437873813L33.2175,160.9052469658925L34.140208333333334,158.9699039882471L35.062916666666666,157.18488461592725L35.985625,154.72410221302707" style="fill: none;" fill="none"></path></g></g></g></g><g opacity="0.2"><g><g><g><path stroke="rgb(0, 153, 136)" stroke-width="2px" d="M226.98624999999998,134.27355766296387L227.90895833333335,135.19174575805664L228.83166666666668,134.6030044555664L229.75437499999998,134.21814918518066L230.67708333333334,133.54819297790527L231.59979166666668,134.7643280029297L232.52249999999998,134.71763610839844L233.44520833333334,135.54217338562012L234.36791666666667,135.60014724731445L235.290625,134.9600601196289L236.21333333333334,134.47397232055664L237.13604166666667,133.60974311828613L238.05875,135.12280464172363L238.9814583333333,136.70035362243652L239.90416666666667,143.9521884918213L240.826875,137.29890823364258L241.74958333333333,135.05365371704102L242.67229166666667,134.29604530334473L243.595,134.43374633789062L244.51770833333333,134.74063873291016L245.4404166666667,133.14126014709473L246.363125,133.93107414245605L247.28583333333333,134.95564460754395L248.20854166666666,134.03980255126953L249.13125,133.82722854614258L250.05395833333333,134.08185958862305L250.97666666666666,133.4634494781494L251.89937500000002,134.64605331420898L252.82208333333332,132.6386833190918L253.74479166666666,135.44179916381836L254.66750000000002,135.3445529937744L255.59020833333332,135.50539016723633L256.5129166666667,137.91895866394043L257.435625,136.08027458190918L258.35833333333335,139.05436515808105L259.2810416666667,135.71170806884766L260.20375,135.43322563171387" style="fill: none;" fill="none"></path></g><g><path stroke="rgb(238, 51, 119)" stroke-width="2px" d="M226.98624999999998,16.010513305664084L227.90895833333335,24.98916625976564L228.83166666666668,25.775985717773455L229.75437499999998,18.280372619628924L230.67708333333334,27.099037170410174L231.59979166666668,22.93197631835939L232.52249999999998,21.40357971191408L233.44520833333334,16.057491302490256L234.36791666666667,13.53189468383788L235.290625,13.34032058715821L236.21333333333334,10.324134826660165L237.13604166666667,9.880371093750007L238.05875,9.800853729248054L238.9814583333333,15.120449066162108L239.90416666666667,121.0355854034424L240.826875,69.8082733154297L241.74958333333333,48.83405685424806L242.67229166666667,34.666004180908224L243.595,25.69341659545899L244.51770833333333,21.76233291625978L245.4404166666667,17.10378646850588L246.363125,15.68725585937499L247.28583333333333,11.972484588623045L248.20854166666666,10.86297988891601L249.13125,9.803810119628915L250.05395833333333,8.098831176757814L250.97666666666666,7.930183410644537L251.89937500000002,12.873210906982422L252.82208333333332,12.05469131469726L253.74479166666666,17.017517089843764L254.66750000000002,24.832305908203146L255.59020833333332,22.113018035888697L256.5129166666667,23.586902618408224L257.435625,22.260723114013697L258.35833333333335,23.834934234619148L259.2810416666667,18.726978302001964L260.20375,12.595977783203118" style="fill: none;" fill="none"></path></g><g><path stroke="rgb(51, 187, 238)" stroke-width="2px" d="M171.62375,134.85092163085938L172.54645833333333,134.90026473999023L173.46916666666667,133.82149696350098L174.391875,134.2007350921631L175.31458333333333,134.93885040283206L176.2372916666667,134.9415397644043L177.16,136.33349418640137L178.08270833333333,141.0897445678711L179.00541666666666,136.62965774536133L179.928125,135.6389617919922L180.85083333333333,135.56154251098633L181.77354166666666,135.21573066711426L182.69625000000002,135.2846908569336L183.61895833333332,134.558687210083L184.54166666666666,134.48631286621094L185.46437500000002,135.0478172302246L186.38708333333332,134.3577480316162L187.30979166666665,146.4308261871338L188.23250000000002,136.83934211730957L189.15520833333335,135.55585861206055L190.07791666666665,134.09690856933594L191.00062499999999,133.90565872192383L191.92333333333335,133.0160140991211L192.84604166666665,133.80431175231936L193.76874999999998,134.16070938110352L194.69145833333334,133.5494327545166L195.61416666666668,132.92471885681152L196.53687499999998,133.91782760620117L197.45958333333334,133.53829383850098L198.38229166666667,133.8798713684082L199.305,133.79637718200684L200.22770833333334,135.9640598297119L201.15041666666667,134.3746280670166L202.073125,134.20307159423828L202.9958333333333,135.4065990447998L203.91854166666667,133.29373359680176L204.84125,135.4560375213623L205.76395833333333,135.06003379821777L206.68666666666667,134.78594779968262L207.609375,133.47284317016602L208.53208333333333,133.58858108520508L209.45479166666667,133.2891082763672L210.3775,134.12574768066406L211.30020833333333,135.16578674316406L212.2229166666667,132.92673110961914L213.145625,133.9860725402832L214.06833333333333,134.5216941833496L214.99104166666666,133.4492588043213L215.91375,133.9318561553955L216.83645833333333,133.2926940917969L217.75916666666666,134.69740867614746L218.68187500000002,134.05255317687988L219.60458333333332,134.5089626312256L220.52729166666666,134.67854499816895L221.45000000000002,134.20040130615234L222.37270833333335,134.3734169006348L223.29541666666665,134.74631309509277L224.21812500000001,134.25430297851562L225.14083333333335,134.05898094177246L226.06354166666665,134.83627319335938" style="fill: none;" fill="none"></path></g><g><path stroke="rgb(204, 51, 17)" stroke-width="2px" d="M171.62375,17.916336059570327L172.54645833333333,17.942600250244162L173.46916666666667,18.66481781005862L174.391875,20.96118927001954L175.31458333333333,22.68692016601564L176.2372916666667,23.711185455322276L177.16,27.86260604858401L178.08270833333333,23.600616455078136L179.00541666666666,35.68405151367188L179.928125,29.48074340820314L180.85083333333333,24.03600692749025L181.77354166666666,26.815223693847678L182.69625000000002,21.56122207641604L183.61895833333332,22.285480499267603L184.54166666666666,20.90047836303713L185.46437500000002,20.310764312744165L186.38708333333332,19.656829833984382L187.30979166666665,57.18236923217775L188.23250000000002,79.56418991088867L189.15520833333335,45.287456512451186L190.07791666666665,31.337871551513697L191.00062499999999,27.126045227050795L191.92333333333335,22.029380798339858L192.84604166666665,22.777786254882827L193.76874999999998,24.72059249877931L194.69145833333334,20.707054138183615L195.61416666666668,18.203334808349624L196.53687499999998,14.570369720458986L197.45958333333334,14.242382049560543L198.38229166666667,13.093185424804677L199.305,11.613979339599613L200.22770833333334,13.584003448486325L201.15041666666667,15.712776184082033L202.073125,15.140647888183597L202.9958333333333,16.86899185180666L203.91854166666667,17.93899536132814L204.84125,27.921257019042983L205.76395833333333,24.15662765502931L206.68666666666667,24.628753662109393L207.609375,22.5412940979004L208.53208333333333,18.21405410766603L209.45479166666667,22.568759918212898L210.3775,18.33826065063478L211.30020833333333,14.466800689697255L212.2229166666667,13.144187927246085L213.145625,21.62536621093752L214.06833333333333,19.51026916503908L214.99104166666666,14.77733612060546L215.91375,13.461742401123049L216.83645833333333,11.407661437988278L217.75916666666666,10.408763885498043L218.68187500000002,11.591053009033201L219.60458333333332,11.402339935302724L220.52729166666666,12.137184143066404L221.45000000000002,16.63616180419924L222.37270833333335,14.389362335205085L223.29541666666665,15.063190460205078L224.21812500000001,23.801307678222678L225.14083333333335,20.07440567016603L226.06354166666665,18.20781707763674" style="fill: none;" fill="none"></path></g><g><path stroke="rgb(0, 119, 187)" stroke-width="2px" d="M153.16958333333335,135.54437637329102L154.09229166666665,133.15481185913086L155.01500000000001,136.02638244628906L155.93770833333335,136.1194133758545L156.86041666666665,136.36418342590335L157.78312499999998,136.11550331115723L158.70583333333335,135.69007873535156L159.62854166666668,135.69634437561035L160.55124999999998,135.7628631591797L161.47395833333334,144.3436050415039L162.39666666666668,138.3431911468506L163.31937499999998,134.70521926879883L164.24208333333334,133.43548774719238L165.16479166666667,133.79779815673828L166.0875,134.51152801513672L167.01020833333334,134.82755661010742L167.93291666666667,135.1641082763672L168.855625,133.89591217041016L169.7783333333333,134.71506118774414L170.70104166666667,134.77370262145996" style="fill: none;" fill="none"></path></g><g><path stroke="rgb(255, 112, 67)" stroke-width="2px" d="M153.16958333333335,28.0197334289551L154.09229166666665,26.865119934082053L155.01500000000001,26.11705780029298L155.93770833333335,27.842998504638686L156.86041666666665,29.2758369445801L157.78312499999998,29.054641723632827L158.70583333333335,26.609039306640632L159.62854166666668,25.380706787109393L160.55124999999998,28.190097808837912L161.47395833333334,50.04219055175783L162.39666666666668,74.55047607421876L163.31937499999998,47.30159759521485L164.24208333333334,34.69417572021485L165.16479166666667,28.011264801025405L166.0875,24.209346771240252L167.01020833333334,21.94017410278321L167.93291666666667,19.00983810424806L168.855625,18.03997039794924L169.7783333333333,19.024448394775398L170.70104166666667,19.151916503906268" style="fill: none;" fill="none"></path></g><g><path stroke="rgb(187, 187, 187)" stroke-width="2px" d="M134.71541666666667,134.3055248260498L135.638125,132.22851753234863L136.56083333333333,134.09919738769534L137.48354166666667,133.76043319702148L138.40625,134.24734115600586L139.32895833333333,135.66813468933105L140.25166666666667,135.1109790802002L141.174375,135.89768409729004L142.09708333333333,142.11620330810547L143.0197916666667,138.69858741760254L143.9425,136.24529838562012L144.86520833333333,133.87741088867188L145.78791666666666,134.95586395263672L146.710625,134.50505256652832L147.63333333333333,133.6279296875L148.55604166666666,133.78064155578613L149.47875000000002,134.5384979248047L150.40145833333332,134.7359275817871L151.32416666666666,135.5934524536133L152.24687500000002,134.38751220703125" style="fill: none;" fill="none"></path></g><g><path stroke="rgb(0, 153, 136)" stroke-width="2px" d="M134.71541666666667,36.49681091308596L135.638125,39.15376663208009L136.56083333333333,35.00822067260744L137.48354166666667,34.00802612304689L138.40625,34.16362762451173L139.32895833333333,34.40740585327149L140.25166666666667,35.73860168457032L141.174375,33.39847564697267L142.09708333333333,39.958934783935554L143.0197916666667,75.77884674072266L143.9425,65.05090713500977L144.86520833333333,44.520664215087905L145.78791666666666,35.70663452148439L146.710625,31.586799621582045L147.63333333333333,28.15744400024415L148.55604166666666,27.003345489501967L149.47875000000002,25.128364562988303L150.40145833333332,30.797805786132834L151.32416666666666,30.437850952148448L152.24687500000002,26.96880340576174" style="fill: none;" fill="none"></path></g><g><path stroke="rgb(238, 51, 119)" stroke-width="2px" d="M116.26124999999999,135.45120239257815L117.18395833333334,136.61910057067874L118.10666666666667,141.5846061706543L119.029375,135.83844184875488L119.95208333333333,134.3691349029541L120.87479166666667,133.41266632080078L121.7975,135.46133995056152L122.72020833333335,134.89744186401367L123.64291666666666,133.12998771667483L124.565625,133.0136203765869L125.48833333333333,134.23216819763184L126.41104166666666,134.591064453125L127.33375000000001,133.8943576812744L128.25645833333334,134.93324279785156L129.17916666666667,137.70477294921875L130.101875,134.83942985534668L131.02458333333334,133.9300537109375L131.94729166666667,137.3701572418213L132.87,133.23988914489746L133.79270833333334,135.86891174316406" style="fill: none;" fill="none"></path></g><g><path stroke="rgb(51, 187, 238)" stroke-width="2px" d="M116.26124999999999,50.1975440979004L117.18395833333334,58.95397186279298L118.10666666666667,68.61101150512697L119.029375,70.6569290161133L119.95208333333333,57.283935546875014L120.87479166666667,49.21504974365235L121.7975,44.96831893920899L122.72020833333335,43.23511123657228L123.64291666666666,44.27284240722658L124.565625,39.50447082519532L125.48833333333333,40.71172714233399L126.41104166666666,40.94207763671876L127.33375000000001,37.944393157959L128.25645833333334,38.32870483398438L129.17916666666667,39.09923553466798L130.101875,48.521728515625014L131.02458333333334,44.742431640625014L131.94729166666667,44.33134078979493L132.87,42.772731781005874L133.79270833333334,39.06629562377931" style="fill: none;" fill="none"></path></g><g><path stroke="rgb(187, 187, 187)" stroke-width="2px" d="M97.80708333333334,137.22451210021973L98.72979166666667,135.9543514251709L99.6525,136.73056602478027L100.57520833333334,136.7242431640625L101.49791666666665,136.00183486938477L102.420625,137.6763916015625L103.34333333333333,137.10304260253906L104.26604166666667,137.68664360046387L105.18875,138.1200122833252L106.11145833333335,137.61125564575195L107.03416666666666,145.80185890197754L107.956875,136.88273429870605L108.87958333333333,136.02999687194824L109.80229166666666,133.15403938293457L110.72500000000001,134.71153259277344L111.64770833333333,134.71369743347168L112.57041666666667,136.27432823181152L113.49312499999999,135.90693473815918L114.41583333333334,135.37394523620605L115.33854166666667,136.34644508361816" style="fill: none;" fill="none"></path></g><g><path stroke="rgb(0, 153, 136)" stroke-width="2px" d="M97.80708333333334,70.07305145263673L98.72979166666667,60.330715179443374L99.6525,61.1734199523926L100.57520833333334,60.130615234375014L101.49791666666665,58.771533966064474L102.420625,54.675350189209L103.34333333333333,55.13448715209963L104.26604166666667,56.69340133666992L105.18875,50.856227874755874L106.11145833333335,49.60582733154299L107.03416666666666,58.730487823486335L107.956875,67.08023071289064L108.87958333333333,55.14120101928713L109.80229166666666,49.74542617797852L110.72500000000001,46.8668556213379L111.64770833333333,43.056621551513686L112.57041666666667,40.22230148315431L113.49312499999999,39.22996520996096L114.41583333333334,40.52457809448243L115.33854166666667,39.60424423217775" style="fill: none;" fill="none"></path></g><g><path stroke="rgb(238, 51, 119)" stroke-width="2px" d="M79.35291666666667,139.05418395996094L80.27562499999999,139.2402458190918L81.19833333333334,141.8225383758545L82.12104166666667,138.86462211608887L83.04375,139.1077709197998L83.96645833333334,138.88114929199222L84.88916666666665,136.79804801940918L85.811875,136.94915771484375L86.73458333333333,136.8010139465332L87.65729166666667,135.6163501739502L88.58,137.04648971557617L89.50270833333333,145.38107872009277L90.42541666666666,137.495756149292L91.34812500000001,137.0767307281494L92.27083333333333,135.2475643157959L93.19354166666666,134.62950706481934L94.11625000000001,138.89925003051758L95.03895833333333,137.99798011779785L95.96166666666667,142.04030990600586L96.88437499999999,142.40228652954102" style="fill: none;" fill="none"></path></g><g><path stroke="rgb(51, 187, 238)" stroke-width="2px" d="M79.35291666666667,99.15602684020996L80.27562499999999,91.73420906066897L81.19833333333334,95.10465621948242L82.12104166666667,98.55746269226076L83.04375,92.35857963562012L83.96645833333334,85.68204879760744L84.88916666666665,81.97793006896973L85.811875,78.83350372314455L86.73458333333333,74.87293243408205L87.65729166666667,74.50210571289064L88.58,73.27810287475589L89.50270833333333,77.78873443603517L90.42541666666666,85.3191375732422L91.34812500000001,77.34140396118165L92.27083333333333,69.84405517578126L93.19354166666666,64.43950653076175L94.11625000000001,63.36467742919922L95.03895833333333,62.81562805175782L95.96166666666667,64.18855667114259L96.88437499999999,72.65584945678711" style="fill: none;" fill="none"></path></g><g><path stroke="rgb(204, 51, 17)" stroke-width="2px" d="M60.89875,167.57293224334717L61.82145833333333,167.431058883667L62.744166666666665,171.90735816955566L63.666875000000005,163.09436798095703L64.58958333333334,166.0822057723999L65.51229166666667,160.9600305557251L66.435,164.06383514404297L67.35770833333333,166.6267490386963L68.28041666666667,164.88505840301514L69.203125,161.9852590560913L70.12583333333333,161.6089391708374L71.04854166666667,161.44947052001953L71.97125,160.73726177215576L72.89395833333333,160.56237697601318L73.81666666666666,160.92546463012695L74.73937500000001,160.10726928710938L75.66208333333333,161.26325607299805L76.58479166666667,159.47870254516602L77.50750000000001,158.1327247619629L78.43020833333333,159.16732788085938" style="fill: none;" fill="none"></path></g><g><path stroke="rgb(0, 119, 187)" stroke-width="2px" d="M60.89875,168.44829559326172L61.82145833333333,157.02567100524902L62.744166666666665,153.52537155151367L63.666875000000005,151.0286808013916L64.58958333333334,148.74000549316406L65.51229166666667,147.6486587524414L66.435,145.23492813110352L67.35770833333333,146.7184829711914L68.28041666666667,144.26759719848633L69.203125,141.46872520446777L70.12583333333333,141.3589382171631L71.04854166666667,140.3105735778809L71.97125,138.4218978881836L72.89395833333333,137.2331714630127L73.81666666666666,136.62053108215332L74.73937500000001,137.5839328765869L75.66208333333333,135.5666732788086L76.58479166666667,134.2873191833496L77.50750000000001,131.077995300293L78.43020833333333,130.18585205078128" style="fill: none;" fill="none"></path></g><g><path stroke="rgb(255, 112, 67)" stroke-width="2px" d="M49.82625,149.50251579284668L50.74895833333333,146.08360290527344L51.67166666666667,146.63230895996097L52.594375,143.92953872680664L53.51708333333333,147.10352897644043L54.439791666666665,143.717679977417L55.362500000000004,143.61309051513672L56.28520833333334,144.44117546081546L57.20791666666667,145.10029792785645L58.130624999999995,144.73875045776367L59.053333333333335,145.35852432250977L59.97604166666667,143.34162712097168" style="fill: none;" fill="none"></path></g><g><path stroke="rgb(187, 187, 187)" stroke-width="2px" d="M49.82625,132.65280723571777L50.74895833333333,126.61540985107422L51.67166666666667,122.92625427246094L52.594375,119.47731018066406L53.51708333333333,115.32966613769533L54.439791666666665,115.74908256530765L55.362500000000004,110.60371398925783L56.28520833333334,107.2261142730713L57.20791666666667,108.5340690612793L58.130624999999995,109.49292182922365L59.053333333333335,105.16648292541505L59.97604166666667,102.87728309631348" style="fill: none;" fill="none"></path></g><g><path stroke="rgb(51, 187, 238)" stroke-width="2px" d="M36.90833333333333,164.41702365875244L37.831041666666664,160.8456802368164L38.753750000000004,160.9495973587036L39.676458333333336,157.35883712768555L40.59916666666667,155.39694786071777L41.521875,155.93477249145508L42.44458333333333,153.9286231994629L43.36729166666667,153.21494102478027L44.29,156.0446548461914L45.21270833333333,151.28726959228516L46.135416666666664,152.39628791809082L47.058125000000004,150.2918529510498L47.98083333333334,150.34945487976074L48.90354166666667,155.61695098876953" style="fill: none;" fill="none"></path></g><g><path stroke="rgb(204, 51, 17)" stroke-width="2px" d="M36.90833333333333,160.42681694030762L37.831041666666664,158.074312210083L38.753750000000004,154.47599411010742L39.676458333333336,152.65870094299316L40.59916666666667,150.05331993103027L41.521875,148.63052368164065L42.44458333333333,146.57926559448242L43.36729166666667,144.8447608947754L44.29,143.43329429626465L45.21270833333333,141.6465950012207L46.135416666666664,139.8981475830078L47.058125000000004,137.61176109313965L47.98083333333334,136.60082817077637L48.90354166666667,135.8153533935547" style="fill: none;" fill="none"></path></g><g><path stroke="rgb(255, 112, 67)" stroke-width="2px" d="M24.913125,177.11116790771487L25.835833333333333,174.46699142456055L26.758541666666666,172.2835636138916L27.681250000000002,171.7687225341797L28.603958333333335,168.49648475646973L29.526666666666667,167.09978103637695L30.449375,165.03421783447266L31.372083333333332,168.6006498336792L32.29479166666667,163.25113773345947L33.2175,162.42701053619385L34.140208333333334,161.4694595336914L35.062916666666666,160.277738571167L35.985625,160.13572216033936" style="fill: none;" fill="none"></path></g><g><path stroke="rgb(187, 187, 187)" stroke-width="2px" d="M24.913125,176.802978515625L25.835833333333333,174.60710525512695L26.758541666666666,171.52206420898438L27.681250000000002,169.19615268707275L28.603958333333335,166.98286533355713L29.526666666666667,164.81637001037598L30.449375,163.21035861968994L31.372083333333332,162.13237285614014L32.29479166666667,160.13984203338623L33.2175,158.01058769226074L34.140208333333334,156.06738090515137L35.062916666666666,154.50762748718262L35.985625,151.03315353393555" style="fill: none;" fill="none"></path></g></g></g></g></g></g><g transform="translate(53, 176)" clip-path="url(#clip_1)"><clipPath id="clip_1"><rect width="276" height="23"></rect></clipPath><g><g><line x1="0" y1="0" x2="0" y2="5" style="visibility: inherit;" fill="rgb(0, 0, 0)" stroke="rgb(204, 204, 204)" stroke-width="1px"></line><line x1="18.454166666666666" y1="0" x2="18.454166666666666" y2="5" style="visibility: inherit;" fill="rgb(0, 0, 0)" stroke="rgb(204, 204, 204)" stroke-width="1px"></line><line x1="36.90833333333333" y1="0" x2="36.90833333333333" y2="5" style="visibility: inherit;" fill="rgb(0, 0, 0)" stroke="rgb(204, 204, 204)" stroke-width="1px"></line><line x1="55.362500000000004" y1="0" x2="55.362500000000004" y2="5" style="visibility: inherit;" fill="rgb(0, 0, 0)" stroke="rgb(204, 204, 204)" stroke-width="1px"></line><line x1="73.81666666666666" y1="0" x2="73.81666666666666" y2="5" style="visibility: inherit;" fill="rgb(0, 0, 0)" stroke="rgb(204, 204, 204)" stroke-width="1px"></line><line x1="92.27083333333333" y1="0" x2="92.27083333333333" y2="5" style="visibility: inherit;" fill="rgb(0, 0, 0)" stroke="rgb(204, 204, 204)" stroke-width="1px"></line><line x1="110.72500000000001" y1="0" x2="110.72500000000001" y2="5" style="visibility: inherit;" fill="rgb(0, 0, 0)" stroke="rgb(204, 204, 204)" stroke-width="1px"></line><line x1="129.17916666666667" y1="0" x2="129.17916666666667" y2="5" style="visibility: inherit;" fill="rgb(0, 0, 0)" stroke="rgb(204, 204, 204)" stroke-width="1px"></line><line x1="147.63333333333333" y1="0" x2="147.63333333333333" y2="5" style="visibility: inherit;" fill="rgb(0, 0, 0)" stroke="rgb(204, 204, 204)" stroke-width="1px"></line><line x1="166.0875" y1="0" x2="166.0875" y2="5" style="visibility: inherit;" fill="rgb(0, 0, 0)" stroke="rgb(204, 204, 204)" stroke-width="1px"></line><line x1="184.54166666666666" y1="0" x2="184.54166666666666" y2="5" style="visibility: inherit;" fill="rgb(0, 0, 0)" stroke="rgb(204, 204, 204)" stroke-width="1px"></line><line x1="202.9958333333333" y1="0" x2="202.9958333333333" y2="5" style="visibility: inherit;" fill="rgb(0, 0, 0)" stroke="rgb(204, 204, 204)" stroke-width="1px"></line><line x1="221.45000000000002" y1="0" x2="221.45000000000002" y2="5" style="visibility: inherit;" fill="rgb(0, 0, 0)" stroke="rgb(204, 204, 204)" stroke-width="1px"></line><line x1="239.90416666666667" y1="0" x2="239.90416666666667" y2="5" style="visibility: inherit;" fill="rgb(0, 0, 0)" stroke="rgb(204, 204, 204)" stroke-width="1px"></line><line x1="258.35833333333335" y1="0" x2="258.35833333333335" y2="5" style="visibility: inherit;" fill="rgb(0, 0, 0)" stroke="rgb(204, 204, 204)" stroke-width="1px"></line><line x1="276.8125" y1="0" x2="276.8125" y2="5" style="visibility: inherit;" fill="rgb(0, 0, 0)" stroke="rgb(204, 204, 204)" stroke-width="1px"></line></g><g transform="translate(0, 8)"><text x="0" y="0" dx="0em" dy="0.95em" style="text-anchor: middle; visibility: hidden; font-family: Roboto, sans-serif; font-size: 12px; font-weight: 200;" fill="rgb(33, 33, 33)" stroke="none" stroke-width="1px">-20</text><text x="18.454166666666666" y="0" dx="0em" dy="0.95em" style="text-anchor: middle; visibility: inherit; font-family: Roboto, sans-serif; font-size: 12px; font-weight: 200;" fill="rgb(33, 33, 33)" stroke="none" stroke-width="1px">0</text><text x="36.90833333333333" y="0" dx="0em" dy="0.95em" style="text-anchor: middle; visibility: hidden; font-family: Roboto, sans-serif; font-size: 12px; font-weight: 200;" fill="rgb(33, 33, 33)" stroke="none" stroke-width="1px">20</text><text x="55.362500000000004" y="0" dx="0em" dy="0.95em" style="text-anchor: middle; visibility: inherit; font-family: Roboto, sans-serif; font-size: 12px; font-weight: 200;" fill="rgb(33, 33, 33)" stroke="none" stroke-width="1px">40</text><text x="73.81666666666666" y="0" dx="0em" dy="0.95em" style="text-anchor: middle; visibility: hidden; font-family: Roboto, sans-serif; font-size: 12px; font-weight: 200;" fill="rgb(33, 33, 33)" stroke="none" stroke-width="1px">60</text><text x="92.27083333333333" y="0" dx="0em" dy="0.95em" style="text-anchor: middle; visibility: inherit; font-family: Roboto, sans-serif; font-size: 12px; font-weight: 200;" fill="rgb(33, 33, 33)" stroke="none" stroke-width="1px">80</text><text x="110.72500000000001" y="0" dx="0em" dy="0.95em" style="text-anchor: middle; visibility: hidden; font-family: Roboto, sans-serif; font-size: 12px; font-weight: 200;" fill="rgb(33, 33, 33)" stroke="none" stroke-width="1px">100</text><text x="129.17916666666667" y="0" dx="0em" dy="0.95em" style="text-anchor: middle; visibility: inherit; font-family: Roboto, sans-serif; font-size: 12px; font-weight: 200;" fill="rgb(33, 33, 33)" stroke="none" stroke-width="1px">120</text><text x="147.63333333333333" y="0" dx="0em" dy="0.95em" style="text-anchor: middle; visibility: hidden; font-family: Roboto, sans-serif; font-size: 12px; font-weight: 200;" fill="rgb(33, 33, 33)" stroke="none" stroke-width="1px">140</text><text x="166.0875" y="0" dx="0em" dy="0.95em" style="text-anchor: middle; visibility: inherit; font-family: Roboto, sans-serif; font-size: 12px; font-weight: 200;" fill="rgb(33, 33, 33)" stroke="none" stroke-width="1px">160</text><text x="184.54166666666666" y="0" dx="0em" dy="0.95em" style="text-anchor: middle; visibility: hidden; font-family: Roboto, sans-serif; font-size: 12px; font-weight: 200;" fill="rgb(33, 33, 33)" stroke="none" stroke-width="1px">180</text><text x="202.9958333333333" y="0" dx="0em" dy="0.95em" style="text-anchor: middle; visibility: inherit; font-family: Roboto, sans-serif; font-size: 12px; font-weight: 200;" fill="rgb(33, 33, 33)" stroke="none" stroke-width="1px">200</text><text x="221.45000000000002" y="0" dx="0em" dy="0.95em" style="text-anchor: middle; visibility: hidden; font-family: Roboto, sans-serif; font-size: 12px; font-weight: 200;" fill="rgb(33, 33, 33)" stroke="none" stroke-width="1px">220</text><text x="239.90416666666667" y="0" dx="0em" dy="0.95em" style="text-anchor: middle; visibility: inherit; font-family: Roboto, sans-serif; font-size: 12px; font-weight: 200;" fill="rgb(33, 33, 33)" stroke="none" stroke-width="1px">240</text><text x="258.35833333333335" y="0" dx="0em" dy="0.95em" style="text-anchor: middle; visibility: hidden; font-family: Roboto, sans-serif; font-size: 12px; font-weight: 200;" fill="rgb(33, 33, 33)" stroke="none" stroke-width="1px">260</text><text x="276.8125" y="0" dx="0em" dy="0.95em" style="text-anchor: middle; visibility: hidden; font-family: Roboto, sans-serif; font-size: 12px; font-weight: 200;" fill="rgb(33, 33, 33)" stroke="none" stroke-width="1px">280</text></g><line x1="0" y1="0" x2="276.8125" y2="0" fill="rgb(0, 0, 0)" stroke="rgb(204, 204, 204)" stroke-width="1px"></line></g></g></g></g></svg>